<?xml version="1.0" encoding="UTF-8" standalone="no"?>
<!DOCTYPE svg PUBLIC "-//W3C//DTD SVG 1.1//EN" "http://www.w3.org/Graphics/SVG/1.1/DTD/svg11.dtd">
<svg width="100%" height="100%" viewBox="0 0 3910 1920" version="1.1" xmlns="http://www.w3.org/2000/svg" xmlns:xlink="http://www.w3.org/1999/xlink" xml:space="preserve" xmlns:serif="http://www.serif.com/" style="fill-rule:evenodd;clip-rule:evenodd;stroke-linejoin:round;stroke-miterlimit:2;">
    <g transform="matrix(1,0,0,1,-5368,-19)">
        <g id="Монтажная-область4" serif:id="Монтажная область4" transform="matrix(2.03646,0,0,1,5368,19)">
            <rect x="0" y="0" width="1920" height="1920" style="fill:white;"/>
            <clipPath id="_clip1">
                <rect x="0" y="0" width="1920" height="1920"/>
            </clipPath>
            <g clip-path="url(#_clip1)">
                <g id="Первое-здание" serif:id="Первое здание" transform="matrix(0.51752,0,0,1.15428,-51.752,-388.561)">
                    <g transform="matrix(1,0,0,1,1.42109e-14,160)">
                        <path d="M500,1400L300,1400L350,1300L450,1300L500,1400Z" style="fill:rgb(254,208,127);"/>
                    </g>
                    <g transform="matrix(1,0,0,0.952381,0,71.4286)">
                        <rect x="100" y="1500" width="600" height="420" style="fill:rgb(255,228,180);"/>
                    </g>
                    <g transform="matrix(0.285714,0,0,1.0625,151.429,105)">
                        <rect x="520" y="1520" width="140" height="160" style="fill:rgb(254,208,127);"/>
                    </g>
                    <g transform="matrix(0.285714,0,0,1.0625,311.429,105)">
                        <rect x="520" y="1520" width="140" height="160" style="fill:rgb(254,208,127);"/>
                    </g>
                    <rect x="100" y="1300" width="200" height="200" style="fill:rgb(255,228,180);"/>
                    <rect x="500" y="1300" width="200" height="200" style="fill:rgb(255,228,180);"/>
                    <g transform="matrix(1,0,0,0.6875,400,442.5)">
                        <path d="M260,1395.56C260,1375.52 254.006,1356.3 243.337,1342.13C232.667,1327.96 218.197,1320 203.108,1320L196.931,1320C181.832,1320 167.351,1327.97 156.675,1342.14C145.998,1356.32 140,1375.56 140,1395.61L140,1480L260,1480L260,1395.56Z" style="fill:rgb(254,208,127);"/>
                    </g>
                    <g transform="matrix(5,0,0,1,3.41061e-13,-10)">
                        <rect x="100" y="1480" width="40" height="30" style="fill:rgb(254,208,127);"/>
                    </g>
                    <rect x="100" y="1200" width="40" height="100" style="fill:rgb(255,228,180);"/>
                    <path d="M200,1220L210,1240L190,1240L200,1220Z" style="fill:rgb(255,228,180);"/>
                    <g transform="matrix(0.857143,0,0,1.0625,94.2857,-105)">
                        <rect x="520" y="1520" width="140" height="160" style="fill:rgb(254,208,127);"/>
                    </g>
                    <g transform="matrix(0.857143,0,0,1.0625,-305.714,-105)">
                        <rect x="520" y="1520" width="140" height="160" style="fill:rgb(254,208,127);"/>
                    </g>
                    <g transform="matrix(0.285714,0,0,1.0625,151.429,-105)">
                        <rect x="520" y="1520" width="140" height="160" style="fill:rgb(254,208,127);"/>
                    </g>
                    <g transform="matrix(0.285714,0,0,1.0625,311.429,-105)">
                        <rect x="520" y="1520" width="140" height="160" style="fill:rgb(254,208,127);"/>
                    </g>
                    <g transform="matrix(0.857143,0,0,1.0625,94.2857,105)">
                        <rect x="520" y="1520" width="140" height="160" style="fill:rgb(254,208,127);"/>
                    </g>
                    <g transform="matrix(0.857143,0,0,1.0625,-305.714,105)">
                        <rect x="520" y="1520" width="140" height="160" style="fill:rgb(254,208,127);"/>
                    </g>
                    <rect x="100" y="1690" width="600" height="20" style="fill:rgb(254,208,127);"/>
                    <rect x="260" y="1200" width="40" height="100" style="fill:rgb(255,228,180);"/>
                    <rect x="500" y="1200" width="40" height="100" style="fill:rgb(255,228,180);"/>
                    <path d="M600,1220L610,1240L590,1240L600,1220Z" style="fill:rgb(255,228,180);"/>
                    <rect x="660" y="1200" width="40" height="100" style="fill:rgb(255,228,180);"/>
                    <path d="M120,1160L140,1200L100,1200L120,1160Z" style="fill:rgb(255,228,180);"/>
                    <path d="M280,1160L300,1200L260,1200L280,1160Z" style="fill:rgb(255,228,180);"/>
                    <path d="M520,1160L540,1200L500,1200L520,1160Z" style="fill:rgb(255,228,180);"/>
                    <path d="M680,1160L700,1200L660,1200L680,1160Z" style="fill:rgb(255,228,180);"/>
                    <path d="M150,1280L160,1300L140,1300L150,1280Z" style="fill:rgb(254,208,127);"/>
                    <rect x="140" y="1300" width="20" height="20" style="fill:rgb(254,208,127);"/>
                    <rect x="240" y="1300" width="20" height="20" style="fill:rgb(254,208,127);"/>
                    <path d="M250,1280L260,1300L240,1300L250,1280Z" style="fill:rgb(254,208,127);"/>
                    <g transform="matrix(1,0,0,1,10,0)">
                        <rect x="180" y="1240" width="20" height="60" style="fill:rgb(255,228,180);"/>
                    </g>
                    <path d="M320,1460L340,1500L300,1500L320,1460Z" style="fill:rgb(255,228,180);"/>
                    <path d="M480,1460L500,1500L460,1500L480,1460Z" style="fill:rgb(255,228,180);"/>
                    <g transform="matrix(1,0,0,7.66667,0,-9600)">
                        <rect x="360" y="1440" width="20" height="60" style="fill:rgb(254,208,127);"/>
                    </g>
                    <g transform="matrix(1,0,0,7.66667,0,-9600)">
                        <rect x="420" y="1440" width="20" height="60" style="fill:rgb(254,208,127);"/>
                    </g>
                    <path d="M370,1420L380,1440L360,1440L370,1420Z" style="fill:rgb(255,228,180);"/>
                    <path d="M430,1420L440,1440L420,1440L430,1420Z" style="fill:rgb(255,228,180);"/>
                    <path d="M550,1280L560,1300L540,1300L550,1280Z" style="fill:rgb(254,208,127);"/>
                    <path d="M650,1280L660,1300L640,1300L650,1280Z" style="fill:rgb(254,208,127);"/>
                    <g transform="matrix(1,0,0,1,10,0)">
                        <rect x="580" y="1240" width="20" height="60" style="fill:rgb(255,228,180);"/>
                    </g>
                    <g transform="matrix(1,0,0,0.6875,5.68434e-14,442.5)">
                        <path d="M260,1395.56C260,1375.52 254.006,1356.3 243.337,1342.13C232.667,1327.96 218.197,1320 203.108,1320L196.931,1320C181.832,1320 167.351,1327.97 156.675,1342.14C145.998,1356.32 140,1375.56 140,1395.61L140,1480L260,1480L260,1395.56Z" style="fill:rgb(254,208,127);"/>
                    </g>
                    <g transform="matrix(5,0,0,1,-400,-10)">
                        <rect x="100" y="1480" width="40" height="30" style="fill:rgb(254,208,127);"/>
                    </g>
                    <g>
                        <g transform="matrix(1,0,0,2,0,-1320)">
                            <rect x="140" y="1320" width="120" height="10" style="fill:rgb(254,208,127);"/>
                        </g>
                        <g transform="matrix(1,0,0,1.08,0,-107.2)">
                            <rect x="260" y="1315" width="40" height="25" style="fill:rgb(254,208,127);"/>
                        </g>
                        <rect x="100" y="1310" width="40" height="30" style="fill:rgb(254,208,127);"/>
                    </g>
                    <g transform="matrix(1,0,0,1,400,-6.82121e-13)">
                        <g transform="matrix(1,0,0,2,-5.68434e-14,-1320)">
                            <rect x="140" y="1320" width="120" height="10" style="fill:rgb(254,208,127);"/>
                        </g>
                        <g transform="matrix(1,0,0,1.08,0,-107.2)">
                            <rect x="260" y="1315" width="40" height="25" style="fill:rgb(254,208,127);"/>
                        </g>
                        <rect x="100" y="1310" width="40" height="30" style="fill:rgb(254,208,127);"/>
                    </g>
                    <rect x="540" y="1300" width="20" height="20" style="fill:rgb(254,208,127);"/>
                    <rect x="640" y="1300" width="20" height="20" style="fill:rgb(254,208,127);"/>
                    <g transform="matrix(1,0,0,1,1.42109e-14,100)">
                        <rect x="100" y="1800" width="600" height="100" style="fill:rgb(254,208,127);"/>
                    </g>
                    <g transform="matrix(1.13043,0,0,0.652174,-18.2609,747.826)">
                        <rect x="140" y="1850" width="460" height="70" style="fill:rgb(255,228,180);"/>
                    </g>
                </g>
                <g id="Big-ben" serif:id="Big ben" transform="matrix(0.51752,0,0,1.05391,-51.752,128.356)">
                    <g transform="matrix(1,0,0,0.76087,-50,239.13)">
                        <rect x="900" y="1000" width="300" height="920" style="fill:rgb(255,228,180);"/>
                    </g>
                    <g transform="matrix(1,0,0,0.347826,-50,332.174)">
                        <rect x="900" y="1000" width="300" height="920" style="fill:rgb(255,228,180);"/>
                    </g>
                    <g transform="matrix(1.13333,0,0,0.347826,-190,12.1739)">
                        <rect x="900" y="1000" width="300" height="920" style="fill:rgb(255,228,180);"/>
                    </g>
                    <g transform="matrix(1.03448,0,0,0.666667,-30.3103,120)">
                        <rect x="850" y="300" width="290" height="60" style="fill:rgb(254,208,127);"/>
                    </g>
                    <g transform="matrix(1,0,0,1.75,0,-240)">
                        <path d="M1120,320L880,320L940,280L1060,280L1120,320Z" style="fill:rgb(255,228,180);"/>
                    </g>
                    <rect x="950" y="220" width="100" height="30" style="fill:rgb(254,208,127);"/>
                    <g transform="matrix(1,0,0,1.11111,0,-24.4444)">
                        <path d="M1000,40L1050,220L950,220L1000,40Z" style="fill:rgb(255,228,180);"/>
                    </g>
                    <g transform="matrix(1,0,0,1.1,-3,-37.1)">
                        <rect x="833" y="261" width="20" height="100" style="fill:rgb(254,208,127);"/>
                    </g>
                    <g transform="matrix(1.05,0,0,1,-58.5,-5.68434e-14)">
                        <rect x="1150" y="250" width="20" height="110" style="fill:rgb(254,208,127);"/>
                    </g>
                    <rect x="940" y="180" width="10" height="70" style="fill:rgb(254,208,127);"/>
                    <rect x="1050" y="180" width="9" height="70" style="fill:rgb(254,208,127);"/>
                    <path d="M840,230L850,250L830,250L840,230Z" style="fill:rgb(254,208,127);"/>
                    <path d="M1160,230L1170,250L1150,250L1160,230Z" style="fill:rgb(254,208,127);"/>
                    <path d="M1054.5,170L1059,180L1050,180L1054.5,170Z" style="fill:rgb(254,208,127);"/>
                    <path d="M945,170L950,180L940,180L945,170Z" style="fill:rgb(254,208,127);"/>
                    <g transform="matrix(1,0,0,1,-30,-20)">
                        <circle cx="1030" cy="540" r="110" style="fill:rgb(254,208,127);"/>
                    </g>
                    <g transform="matrix(0.7375,0,0,0.7375,176,-116.25)">
                        <circle cx="1120" cy="860" r="120" style="fill:rgb(255,228,180);"/>
                    </g>
                    <g transform="matrix(1.63889,-0.219246,0.132596,0.99117,-754.766,-16.6581)">
                        <rect x="984" y="760" width="36" height="10" style="fill:rgb(254,208,127);"/>
                    </g>
                    <g transform="matrix(-0.16252,-1.52081,1.52081,-0.16252,-25.9175,2100.07)">
                        <path d="M955,740C955,740 957.663,745.326 959.102,748.204C959.294,748.589 959.274,749.046 959.048,749.412C958.822,749.777 958.422,750 957.992,750C956.252,750 953.748,750 952.008,750C951.578,750 951.178,749.777 950.952,749.412C950.726,749.046 950.706,748.589 950.898,748.204C952.337,745.326 955,740 955,740Z" style="fill:rgb(254,208,127);"/>
                    </g>
                    <g transform="matrix(-0.136714,-0.990611,0.990611,-0.136714,368.88,1598.21)">
                        <path d="M988.861,760.75C989.607,759.458 990,757.992 990,756.5C990,751.809 986.191,748 981.5,748C976.809,748 973,751.809 973,756.5C973,757.992 973.393,759.458 974.139,760.75L988.861,760.75Z" style="fill:rgb(254,208,127);"/>
                    </g>
                    <g transform="matrix(-0.125567,-0.992085,0.992085,-0.125567,403.799,1626.81)">
                        <path d="M1035,755L1010,755L1016.25,740L1028.75,740L1035,755Z" style="fill:rgb(254,208,127);"/>
                    </g>
                    <rect x="830" y="680" width="340" height="40" style="fill:rgb(254,208,127);"/>
                    <g transform="matrix(1,0,0,0.816667,-4.54747e-13,132)">
                        <rect x="1100" y="720" width="49" height="1200" style="fill:rgb(254,208,127);"/>
                    </g>
                    <g transform="matrix(1,0,0,0.816667,-4.54747e-13,132)">
                        <rect x="850" y="720" width="50" height="1200" style="fill:rgb(254,208,127);"/>
                    </g>
                    <g transform="matrix(1,0,0,1,-1.13687e-12,-200)">
                        <rect x="900" y="1690" width="200" height="20" style="fill:rgb(254,208,127);"/>
                    </g>
                    <g transform="matrix(1,0,0,1,-7.95808e-13,-200)">
                        <rect x="900" y="1490" width="200" height="20" style="fill:rgb(254,208,127);"/>
                    </g>
                    <g transform="matrix(1,0,0,1,-4.54747e-13,-200)">
                        <rect x="900" y="1290" width="200" height="20" style="fill:rgb(254,208,127);"/>
                    </g>
                    <g transform="matrix(1,0,0,1,-4.54747e-13,-200)">
                        <rect x="900" y="1090" width="200" height="20" style="fill:rgb(254,208,127);"/>
                    </g>
                    <g transform="matrix(1,0,0,1,10,-225)">
                        <path d="M940,965C940,962.24 937.76,960 935,960L925,960C922.24,960 920,962.24 920,965L920,1095C920,1097.76 922.24,1100 925,1100L935,1100C937.76,1100 940,1097.76 940,1095L940,965Z" style="fill:rgb(254,208,127);"/>
                    </g>
                    <g transform="matrix(1,0,0,1,50,-225)">
                        <path d="M940,965C940,962.24 937.76,960 935,960L925,960C922.24,960 920,962.24 920,965L920,1095C920,1097.76 922.24,1100 925,1100L935,1100C937.76,1100 940,1097.76 940,1095L940,965Z" style="fill:rgb(254,208,127);"/>
                    </g>
                    <g transform="matrix(1,0,0,1,90,-225)">
                        <path d="M940,965C940,962.24 937.76,960 935,960L925,960C922.24,960 920,962.24 920,965L920,1095C920,1097.76 922.24,1100 925,1100L935,1100C937.76,1100 940,1097.76 940,1095L940,965Z" style="fill:rgb(254,208,127);"/>
                    </g>
                    <g transform="matrix(1,0,0,1,130,-225)">
                        <path d="M940,965C940,962.24 937.76,960 935,960L925,960C922.24,960 920,962.24 920,965L920,1095C920,1097.76 922.24,1100 925,1100L935,1100C937.76,1100 940,1097.76 940,1095L940,965Z" style="fill:rgb(254,208,127);"/>
                    </g>
                    <g transform="matrix(1,0,0,1,10,-25)">
                        <path d="M940,965C940,962.24 937.76,960 935,960L925,960C922.24,960 920,962.24 920,965L920,1095C920,1097.76 922.24,1100 925,1100L935,1100C937.76,1100 940,1097.76 940,1095L940,965Z" style="fill:rgb(254,208,127);"/>
                    </g>
                    <g transform="matrix(1,0,0,1,50,-25)">
                        <path d="M940,965C940,962.24 937.76,960 935,960L925,960C922.24,960 920,962.24 920,965L920,1095C920,1097.76 922.24,1100 925,1100L935,1100C937.76,1100 940,1097.76 940,1095L940,965Z" style="fill:rgb(254,208,127);"/>
                    </g>
                    <g transform="matrix(1,0,0,1,90,-25)">
                        <path d="M940,965C940,962.24 937.76,960 935,960L925,960C922.24,960 920,962.24 920,965L920,1095C920,1097.76 922.24,1100 925,1100L935,1100C937.76,1100 940,1097.76 940,1095L940,965Z" style="fill:rgb(254,208,127);"/>
                    </g>
                    <g transform="matrix(1,0,0,1,130,-25)">
                        <path d="M940,965C940,962.24 937.76,960 935,960L925,960C922.24,960 920,962.24 920,965L920,1095C920,1097.76 922.24,1100 925,1100L935,1100C937.76,1100 940,1097.76 940,1095L940,965Z" style="fill:rgb(254,208,127);"/>
                    </g>
                    <g transform="matrix(1,0,0,1,10,175)">
                        <path d="M940,965C940,962.24 937.76,960 935,960L925,960C922.24,960 920,962.24 920,965L920,1095C920,1097.76 922.24,1100 925,1100L935,1100C937.76,1100 940,1097.76 940,1095L940,965Z" style="fill:rgb(254,208,127);"/>
                    </g>
                    <g transform="matrix(1,0,0,1,50,175)">
                        <path d="M940,965C940,962.24 937.76,960 935,960L925,960C922.24,960 920,962.24 920,965L920,1095C920,1097.76 922.24,1100 925,1100L935,1100C937.76,1100 940,1097.76 940,1095L940,965Z" style="fill:rgb(254,208,127);"/>
                    </g>
                    <g transform="matrix(1,0,0,1,90,175)">
                        <path d="M940,965C940,962.24 937.76,960 935,960L925,960C922.24,960 920,962.24 920,965L920,1095C920,1097.76 922.24,1100 925,1100L935,1100C937.76,1100 940,1097.76 940,1095L940,965Z" style="fill:rgb(254,208,127);"/>
                    </g>
                    <g transform="matrix(1,0,0,1,130,175)">
                        <path d="M940,965C940,962.24 937.76,960 935,960L925,960C922.24,960 920,962.24 920,965L920,1095C920,1097.76 922.24,1100 925,1100L935,1100C937.76,1100 940,1097.76 940,1095L940,965Z" style="fill:rgb(254,208,127);"/>
                    </g>
                    <g transform="matrix(1,0,0,1,10,375)">
                        <path d="M940,965C940,962.24 937.76,960 935,960L925,960C922.24,960 920,962.24 920,965L920,1095C920,1097.76 922.24,1100 925,1100L935,1100C937.76,1100 940,1097.76 940,1095L940,965Z" style="fill:rgb(254,208,127);"/>
                    </g>
                    <g transform="matrix(1,0,0,1,50,375)">
                        <path d="M940,965C940,962.24 937.76,960 935,960L925,960C922.24,960 920,962.24 920,965L920,1095C920,1097.76 922.24,1100 925,1100L935,1100C937.76,1100 940,1097.76 940,1095L940,965Z" style="fill:rgb(254,208,127);"/>
                    </g>
                    <g transform="matrix(1,0,0,1,90,375)">
                        <path d="M940,965C940,962.24 937.76,960 935,960L925,960C922.24,960 920,962.24 920,965L920,1095C920,1097.76 922.24,1100 925,1100L935,1100C937.76,1100 940,1097.76 940,1095L940,965Z" style="fill:rgb(254,208,127);"/>
                    </g>
                    <g transform="matrix(1,0,0,1,130,375)">
                        <path d="M940,965C940,962.24 937.76,960 935,960L925,960C922.24,960 920,962.24 920,965L920,1095C920,1097.76 922.24,1100 925,1100L935,1100C937.76,1100 940,1097.76 940,1095L940,965Z" style="fill:rgb(254,208,127);"/>
                    </g>
                    <g transform="matrix(1,0,0,1,10,565)">
                        <path d="M940,965C940,962.24 937.76,960 935,960L925,960C922.24,960 920,962.24 920,965L920,1095C920,1097.76 922.24,1100 925,1100L935,1100C937.76,1100 940,1097.76 940,1095L940,965Z" style="fill:rgb(254,208,127);"/>
                    </g>
                    <g transform="matrix(1,0,0,1,50,565)">
                        <path d="M940,965C940,962.24 937.76,960 935,960L925,960C922.24,960 920,962.24 920,965L920,1095C920,1097.76 922.24,1100 925,1100L935,1100C937.76,1100 940,1097.76 940,1095L940,965Z" style="fill:rgb(254,208,127);"/>
                    </g>
                    <g transform="matrix(1,0,0,1,90,565)">
                        <path d="M940,965C940,962.24 937.76,960 935,960L925,960C922.24,960 920,962.24 920,965L920,1095C920,1097.76 922.24,1100 925,1100L935,1100C937.76,1100 940,1097.76 940,1095L940,965Z" style="fill:rgb(254,208,127);"/>
                    </g>
                    <g transform="matrix(1,0,0,1,130,565)">
                        <path d="M940,965C940,962.24 937.76,960 935,960L925,960C922.24,960 920,962.24 920,965L920,1095C920,1097.76 922.24,1100 925,1100L935,1100C937.76,1100 940,1097.76 940,1095L940,965Z" style="fill:rgb(254,208,127);"/>
                    </g>
                    <g>
                        <g transform="matrix(1,0,0,1.55,2,-527.75)">
                            <path d="M890,551.613C890,550.723 888.88,550 887.5,550L882.5,550C881.12,550 880,550.723 880,551.613L880,568.387C880,569.277 881.12,570 882.5,570L887.5,570C888.88,570 890,569.277 890,568.387L890,551.613Z" style="fill:rgb(255,228,180);"/>
                        </g>
                        <g transform="matrix(1,0,0,1.55,17,-527.75)">
                            <path d="M890,551.613C890,550.723 888.88,550 887.5,550L882.5,550C881.12,550 880,550.723 880,551.613L880,568.387C880,569.277 881.12,570 882.5,570L887.5,570C888.88,570 890,569.277 890,568.387L890,551.613Z" style="fill:rgb(255,228,180);"/>
                        </g>
                        <g transform="matrix(1,0,0,1.55,32,-527.75)">
                            <path d="M890,551.613C890,550.723 888.88,550 887.5,550L882.5,550C881.12,550 880,550.723 880,551.613L880,568.387C880,569.277 881.12,570 882.5,570L887.5,570C888.88,570 890,569.277 890,568.387L890,551.613Z" style="fill:rgb(255,228,180);"/>
                        </g>
                        <g transform="matrix(1,0,0,1.55,47,-528.25)">
                            <path d="M890,551.613C890,550.723 888.88,550 887.5,550L882.5,550C881.12,550 880,550.723 880,551.613L880,568.387C880,569.277 881.12,570 882.5,570L887.5,570C888.88,570 890,569.277 890,568.387L890,551.613Z" style="fill:rgb(255,228,180);"/>
                        </g>
                        <g transform="matrix(1,0,0,1.55,62,-527.75)">
                            <path d="M890,551.613C890,550.723 888.88,550 887.5,550L882.5,550C881.12,550 880,550.723 880,551.613L880,568.387C880,569.277 881.12,570 882.5,570L887.5,570C888.88,570 890,569.277 890,568.387L890,551.613Z" style="fill:rgb(255,228,180);"/>
                        </g>
                        <g transform="matrix(1,0,0,1.55,77,-527.75)">
                            <path d="M890,551.613C890,550.723 888.88,550 887.5,550L882.5,550C881.12,550 880,550.723 880,551.613L880,568.387C880,569.277 881.12,570 882.5,570L887.5,570C888.88,570 890,569.277 890,568.387L890,551.613Z" style="fill:rgb(255,228,180);"/>
                        </g>
                        <g transform="matrix(1,0,0,1.55,92,-527.75)">
                            <path d="M890,551.613C890,550.723 888.88,550 887.5,550L882.5,550C881.12,550 880,550.723 880,551.613L880,568.387C880,569.277 881.12,570 882.5,570L887.5,570C888.88,570 890,569.277 890,568.387L890,551.613Z" style="fill:rgb(255,228,180);"/>
                        </g>
                        <g transform="matrix(1,0,0,1.55,107,-527.75)">
                            <path d="M890,551.613C890,550.723 888.88,550 887.5,550L882.5,550C881.12,550 880,550.723 880,551.613L880,568.387C880,569.277 881.12,570 882.5,570L887.5,570C888.88,570 890,569.277 890,568.387L890,551.613Z" style="fill:rgb(255,228,180);"/>
                        </g>
                        <g transform="matrix(1,0,0,1.55,122,-527.75)">
                            <path d="M890,551.613C890,550.723 888.88,550 887.5,550L882.5,550C881.12,550 880,550.723 880,551.613L880,568.387C880,569.277 881.12,570 882.5,570L887.5,570C888.88,570 890,569.277 890,568.387L890,551.613Z" style="fill:rgb(255,228,180);"/>
                        </g>
                        <g transform="matrix(1,0,0,1.55,137,-528.25)">
                            <path d="M890,551.613C890,550.723 888.88,550 887.5,550L882.5,550C881.12,550 880,550.723 880,551.613L880,568.387C880,569.277 881.12,570 882.5,570L887.5,570C888.88,570 890,569.277 890,568.387L890,551.613Z" style="fill:rgb(255,228,180);"/>
                        </g>
                        <g transform="matrix(1,0,0,1.55,152,-527.75)">
                            <path d="M890,551.613C890,550.723 888.88,550 887.5,550L882.5,550C881.12,550 880,550.723 880,551.613L880,568.387C880,569.277 881.12,570 882.5,570L887.5,570C888.88,570 890,569.277 890,568.387L890,551.613Z" style="fill:rgb(255,228,180);"/>
                        </g>
                        <g transform="matrix(1,0,0,1.55,167,-527.75)">
                            <path d="M890,551.613C890,550.723 888.88,550 887.5,550L882.5,550C881.12,550 880,550.723 880,551.613L880,568.387C880,569.277 881.12,570 882.5,570L887.5,570C888.88,570 890,569.277 890,568.387L890,551.613Z" style="fill:rgb(255,228,180);"/>
                        </g>
                        <g transform="matrix(1,0,0,1.55,182,-527.75)">
                            <path d="M890,551.613C890,550.723 888.88,550 887.5,550L882.5,550C881.12,550 880,550.723 880,551.613L880,568.387C880,569.277 881.12,570 882.5,570L887.5,570C888.88,570 890,569.277 890,568.387L890,551.613Z" style="fill:rgb(255,228,180);"/>
                        </g>
                        <g transform="matrix(1,0,0,1.55,197,-527.75)">
                            <path d="M890,551.613C890,550.723 888.88,550 887.5,550L882.5,550C881.12,550 880,550.723 880,551.613L880,568.387C880,569.277 881.12,570 882.5,570L887.5,570C888.88,570 890,569.277 890,568.387L890,551.613Z" style="fill:rgb(255,228,180);"/>
                        </g>
                        <g transform="matrix(1,0,0,1.55,212,-527.75)">
                            <path d="M890,551.613C890,550.723 888.88,550 887.5,550L882.5,550C881.12,550 880,550.723 880,551.613L880,568.387C880,569.277 881.12,570 882.5,570L887.5,570C888.88,570 890,569.277 890,568.387L890,551.613Z" style="fill:rgb(255,228,180);"/>
                        </g>
                        <g transform="matrix(1,0,0,1.55,227,-527.75)">
                            <path d="M890,551.613C890,550.723 888.88,550 887.5,550L882.5,550C881.12,550 880,550.723 880,551.613L880,568.387C880,569.277 881.12,570 882.5,570L887.5,570C888.88,570 890,569.277 890,568.387L890,551.613Z" style="fill:rgb(255,228,180);"/>
                        </g>
                    </g>
                    <g transform="matrix(1,0,0,1,0,360)">
                        <g transform="matrix(1,0,0,1.55,2,-527.75)">
                            <path d="M890,551.613C890,550.723 888.88,550 887.5,550L882.5,550C881.12,550 880,550.723 880,551.613L880,568.387C880,569.277 881.12,570 882.5,570L887.5,570C888.88,570 890,569.277 890,568.387L890,551.613Z" style="fill:rgb(255,228,180);"/>
                        </g>
                        <g transform="matrix(1,0,0,1.55,17,-527.75)">
                            <path d="M890,551.613C890,550.723 888.88,550 887.5,550L882.5,550C881.12,550 880,550.723 880,551.613L880,568.387C880,569.277 881.12,570 882.5,570L887.5,570C888.88,570 890,569.277 890,568.387L890,551.613Z" style="fill:rgb(255,228,180);"/>
                        </g>
                        <g transform="matrix(1,0,0,1.55,32,-527.75)">
                            <path d="M890,551.613C890,550.723 888.88,550 887.5,550L882.5,550C881.12,550 880,550.723 880,551.613L880,568.387C880,569.277 881.12,570 882.5,570L887.5,570C888.88,570 890,569.277 890,568.387L890,551.613Z" style="fill:rgb(255,228,180);"/>
                        </g>
                        <g transform="matrix(1,0,0,1.55,47,-528.25)">
                            <path d="M890,551.613C890,550.723 888.88,550 887.5,550L882.5,550C881.12,550 880,550.723 880,551.613L880,568.387C880,569.277 881.12,570 882.5,570L887.5,570C888.88,570 890,569.277 890,568.387L890,551.613Z" style="fill:rgb(255,228,180);"/>
                        </g>
                        <g transform="matrix(1,0,0,1.55,62,-527.75)">
                            <path d="M890,551.613C890,550.723 888.88,550 887.5,550L882.5,550C881.12,550 880,550.723 880,551.613L880,568.387C880,569.277 881.12,570 882.5,570L887.5,570C888.88,570 890,569.277 890,568.387L890,551.613Z" style="fill:rgb(255,228,180);"/>
                        </g>
                        <g transform="matrix(1,0,0,1.55,77,-527.75)">
                            <path d="M890,551.613C890,550.723 888.88,550 887.5,550L882.5,550C881.12,550 880,550.723 880,551.613L880,568.387C880,569.277 881.12,570 882.5,570L887.5,570C888.88,570 890,569.277 890,568.387L890,551.613Z" style="fill:rgb(255,228,180);"/>
                        </g>
                        <g transform="matrix(1,0,0,1.55,92,-527.75)">
                            <path d="M890,551.613C890,550.723 888.88,550 887.5,550L882.5,550C881.12,550 880,550.723 880,551.613L880,568.387C880,569.277 881.12,570 882.5,570L887.5,570C888.88,570 890,569.277 890,568.387L890,551.613Z" style="fill:rgb(255,228,180);"/>
                        </g>
                        <g transform="matrix(1,0,0,1.55,107,-527.75)">
                            <path d="M890,551.613C890,550.723 888.88,550 887.5,550L882.5,550C881.12,550 880,550.723 880,551.613L880,568.387C880,569.277 881.12,570 882.5,570L887.5,570C888.88,570 890,569.277 890,568.387L890,551.613Z" style="fill:rgb(255,228,180);"/>
                        </g>
                        <g transform="matrix(1,0,0,1.55,122,-527.75)">
                            <path d="M890,551.613C890,550.723 888.88,550 887.5,550L882.5,550C881.12,550 880,550.723 880,551.613L880,568.387C880,569.277 881.12,570 882.5,570L887.5,570C888.88,570 890,569.277 890,568.387L890,551.613Z" style="fill:rgb(255,228,180);"/>
                        </g>
                        <g transform="matrix(1,0,0,1.55,137,-528.25)">
                            <path d="M890,551.613C890,550.723 888.88,550 887.5,550L882.5,550C881.12,550 880,550.723 880,551.613L880,568.387C880,569.277 881.12,570 882.5,570L887.5,570C888.88,570 890,569.277 890,568.387L890,551.613Z" style="fill:rgb(255,228,180);"/>
                        </g>
                        <g transform="matrix(1,0,0,1.55,152,-527.75)">
                            <path d="M890,551.613C890,550.723 888.88,550 887.5,550L882.5,550C881.12,550 880,550.723 880,551.613L880,568.387C880,569.277 881.12,570 882.5,570L887.5,570C888.88,570 890,569.277 890,568.387L890,551.613Z" style="fill:rgb(255,228,180);"/>
                        </g>
                        <g transform="matrix(1,0,0,1.55,167,-527.75)">
                            <path d="M890,551.613C890,550.723 888.88,550 887.5,550L882.5,550C881.12,550 880,550.723 880,551.613L880,568.387C880,569.277 881.12,570 882.5,570L887.5,570C888.88,570 890,569.277 890,568.387L890,551.613Z" style="fill:rgb(255,228,180);"/>
                        </g>
                        <g transform="matrix(1,0,0,1.55,182,-527.75)">
                            <path d="M890,551.613C890,550.723 888.88,550 887.5,550L882.5,550C881.12,550 880,550.723 880,551.613L880,568.387C880,569.277 881.12,570 882.5,570L887.5,570C888.88,570 890,569.277 890,568.387L890,551.613Z" style="fill:rgb(255,228,180);"/>
                        </g>
                        <g transform="matrix(1,0,0,1.55,197,-527.75)">
                            <path d="M890,551.613C890,550.723 888.88,550 887.5,550L882.5,550C881.12,550 880,550.723 880,551.613L880,568.387C880,569.277 881.12,570 882.5,570L887.5,570C888.88,570 890,569.277 890,568.387L890,551.613Z" style="fill:rgb(255,228,180);"/>
                        </g>
                        <g transform="matrix(1,0,0,1.55,212,-527.75)">
                            <path d="M890,551.613C890,550.723 888.88,550 887.5,550L882.5,550C881.12,550 880,550.723 880,551.613L880,568.387C880,569.277 881.12,570 882.5,570L887.5,570C888.88,570 890,569.277 890,568.387L890,551.613Z" style="fill:rgb(255,228,180);"/>
                        </g>
                        <g transform="matrix(1,0,0,1.55,227,-527.75)">
                            <path d="M890,551.613C890,550.723 888.88,550 887.5,550L882.5,550C881.12,550 880,550.723 880,551.613L880,568.387C880,569.277 881.12,570 882.5,570L887.5,570C888.88,570 890,569.277 890,568.387L890,551.613Z" style="fill:rgb(255,228,180);"/>
                        </g>
                    </g>
                    <g transform="matrix(0.584566,-0.811346,0.811346,0.584566,-176.577,826.92)">
                        <path d="M936,689.5L939,695.5L933,695.5L936,689.5Z" style="fill:rgb(254,208,127);"/>
                    </g>
                    <g transform="matrix(1,0,0,1,-10,-230)">
                        <circle cx="1010" cy="750" r="10" style="fill:rgb(254,208,127);"/>
                    </g>
                    <g transform="matrix(0.816185,0.57779,-0.57779,0.816185,609.674,-659.767)">
                        <rect x="920" y="735" width="80" height="5" style="fill:rgb(254,208,127);"/>
                    </g>
                </g>
                <g id="Третье-здание" serif:id="Третье здание" transform="matrix(0.744744,0,0,1.05391,-51.752,-103.504)">
                    <g transform="matrix(0.694897,0,0,1,-138.979,20)">
                        <rect x="1500" y="1100" width="1200" height="800" style="fill:rgb(255,228,180);"/>
                    </g>
                    <g transform="matrix(0.521173,0,0,1,225.841,0)">
                        <path d="M1700,1120L1300,1120L1400,1000L1600,1000L1700,1120Z" style="fill:rgb(255,228,180);"/>
                    </g>
                    <g transform="matrix(0.521173,0,0,1,434.311,2.27374e-13)">
                        <path d="M1700,1120L1300,1120L1400,1000L1600,1000L1700,1120Z" style="fill:rgb(255,228,180);"/>
                    </g>
                    <g transform="matrix(0.521173,0,0,1,642.78,2.27374e-13)">
                        <path d="M1700,1120L1300,1120L1400,1000L1600,1000L1700,1120Z" style="fill:rgb(255,228,180);"/>
                    </g>
                    <g transform="matrix(0.521173,0,0,1,851.249,2.27374e-13)">
                        <path d="M1700,1120L1300,1120L1400,1000L1600,1000L1700,1120Z" style="fill:rgb(255,228,180);"/>
                    </g>
                    <g transform="matrix(0.694897,0,0,1,0,-20)">
                        <rect x="1300" y="1100" width="1200" height="40" style="fill:rgb(254,208,127);"/>
                    </g>
                    <g>
                        <g transform="matrix(0.694897,0,0,1,0,0)">
                            <path d="M1520,984.744C1520,983.486 1519.5,982.279 1518.61,981.39C1517.72,980.5 1516.51,980 1515.26,980C1493.83,980 1406.17,980 1384.74,980C1383.49,980 1382.28,980.5 1381.39,981.39C1380.5,982.279 1380,983.486 1380,984.744C1380,990.659 1380,1000 1380,1000L1520,1000L1520,984.744Z" style="fill:rgb(254,208,127);"/>
                        </g>
                        <g transform="matrix(0.496355,0,0,0.714286,287.886,265.714)">
                            <path d="M1520,986.642C1520,982.974 1517.03,980 1513.36,980C1489.78,980 1410.22,980 1386.64,980C1382.97,980 1380,982.974 1380,986.642C1380,992.462 1380,1000 1380,1000L1520,1000L1520,986.642Z" style="fill:rgb(254,208,127);"/>
                        </g>
                        <g transform="matrix(0.694897,0,0,2,0,-900)">
                            <path d="M1475,892.372C1475,891.743 1474.5,891.14 1473.61,890.695C1472.72,890.25 1471.51,890 1470.26,890C1460.71,890 1439.29,890 1429.74,890C1428.49,890 1427.28,890.25 1426.39,890.695C1425.5,891.14 1425,891.743 1425,892.372C1425,893.959 1425,896.041 1425,897.628C1425,898.257 1425.5,898.86 1426.39,899.305C1427.28,899.75 1428.49,900 1429.74,900C1439.29,900 1460.71,900 1470.26,900C1471.51,900 1472.72,899.75 1473.61,899.305C1474.5,898.86 1475,898.257 1475,897.628C1475,896.041 1475,893.959 1475,892.372Z" style="fill:rgb(255,228,180);"/>
                        </g>
                        <g transform="matrix(0.479795,0,0,1.05493,312.394,-52.0064)">
                            <rect x="1420" y="902.437" width="59.381" height="62.563" style="fill:rgb(255,228,180);"/>
                        </g>
                    </g>
                    <g transform="matrix(1,0,0,1,208.469,0)">
                        <g transform="matrix(0.694897,0,0,1,0,0)">
                            <path d="M1520,984.744C1520,983.486 1519.5,982.279 1518.61,981.39C1517.72,980.5 1516.51,980 1515.26,980C1493.83,980 1406.17,980 1384.74,980C1383.49,980 1382.28,980.5 1381.39,981.39C1380.5,982.279 1380,983.486 1380,984.744C1380,990.659 1380,1000 1380,1000L1520,1000L1520,984.744Z" style="fill:rgb(254,208,127);"/>
                        </g>
                        <g transform="matrix(0.496355,0,0,0.714286,287.886,265.714)">
                            <path d="M1520,986.642C1520,982.974 1517.03,980 1513.36,980C1489.78,980 1410.22,980 1386.64,980C1382.97,980 1380,982.974 1380,986.642C1380,992.462 1380,1000 1380,1000L1520,1000L1520,986.642Z" style="fill:rgb(254,208,127);"/>
                        </g>
                        <g transform="matrix(0.694897,0,0,2,0,-900)">
                            <path d="M1475,892.372C1475,891.743 1474.5,891.14 1473.61,890.695C1472.72,890.25 1471.51,890 1470.26,890C1460.71,890 1439.29,890 1429.74,890C1428.49,890 1427.28,890.25 1426.39,890.695C1425.5,891.14 1425,891.743 1425,892.372C1425,893.959 1425,896.041 1425,897.628C1425,898.257 1425.5,898.86 1426.39,899.305C1427.28,899.75 1428.49,900 1429.74,900C1439.29,900 1460.71,900 1470.26,900C1471.51,900 1472.72,899.75 1473.61,899.305C1474.5,898.86 1475,898.257 1475,897.628C1475,896.041 1475,893.959 1475,892.372Z" style="fill:rgb(255,228,180);"/>
                        </g>
                        <g transform="matrix(0.479795,0,0,1.05493,312.394,-52.0064)">
                            <rect x="1420" y="902.437" width="59.381" height="62.563" style="fill:rgb(255,228,180);"/>
                        </g>
                    </g>
                    <g transform="matrix(1,0,0,1,416.938,5.68434e-13)">
                        <g transform="matrix(0.694897,0,0,1,0,0)">
                            <path d="M1520,984.744C1520,983.486 1519.5,982.279 1518.61,981.39C1517.72,980.5 1516.51,980 1515.26,980C1493.83,980 1406.17,980 1384.74,980C1383.49,980 1382.28,980.5 1381.39,981.39C1380.5,982.279 1380,983.486 1380,984.744C1380,990.659 1380,1000 1380,1000L1520,1000L1520,984.744Z" style="fill:rgb(254,208,127);"/>
                        </g>
                        <g transform="matrix(0.496355,0,0,0.714286,287.886,265.714)">
                            <path d="M1520,986.642C1520,982.974 1517.03,980 1513.36,980C1489.78,980 1410.22,980 1386.64,980C1382.97,980 1380,982.974 1380,986.642C1380,992.462 1380,1000 1380,1000L1520,1000C1520,1000 1520,992.462 1520,986.642Z" style="fill:rgb(254,208,127);"/>
                        </g>
                        <g transform="matrix(0.694897,0,0,2,0,-900)">
                            <path d="M1475,892.372C1475,891.743 1474.5,891.14 1473.61,890.695C1472.72,890.25 1471.51,890 1470.26,890C1460.71,890 1439.29,890 1429.74,890C1428.49,890 1427.28,890.25 1426.39,890.695C1425.5,891.14 1425,891.743 1425,892.372C1425,893.959 1425,896.041 1425,897.628C1425,898.257 1425.5,898.86 1426.39,899.305C1427.28,899.75 1428.49,900 1429.74,900C1439.29,900 1460.71,900 1470.26,900C1471.51,900 1472.72,899.75 1473.61,899.305C1474.5,898.86 1475,898.257 1475,897.628C1475,896.041 1475,893.959 1475,892.372Z" style="fill:rgb(255,228,180);"/>
                        </g>
                        <g transform="matrix(0.479795,0,0,1.05493,312.394,-52.0064)">
                            <rect x="1420" y="902.437" width="59.381" height="62.563" style="fill:rgb(255,228,180);"/>
                        </g>
                    </g>
                    <g transform="matrix(1,0,0,1,625.407,5.68434e-13)">
                        <g transform="matrix(0.694897,0,0,1,0,0)">
                            <path d="M1520,984.744C1520,983.486 1519.5,982.279 1518.61,981.39C1517.72,980.5 1516.51,980 1515.26,980C1493.83,980 1406.17,980 1384.74,980C1383.49,980 1382.28,980.5 1381.39,981.39C1380.5,982.279 1380,983.486 1380,984.744C1380,990.659 1380,1000 1380,1000L1520,1000L1520,984.744Z" style="fill:rgb(254,208,127);"/>
                        </g>
                        <g transform="matrix(0.496355,0,0,0.714286,287.886,265.714)">
                            <path d="M1520,986.642C1520,982.974 1517.03,980 1513.36,980C1489.78,980 1410.22,980 1386.64,980C1382.97,980 1380,982.974 1380,986.642C1380,992.462 1380,1000 1380,1000L1520,1000L1520,986.642Z" style="fill:rgb(254,208,127);"/>
                        </g>
                        <g transform="matrix(0.694897,0,0,2,0,-900)">
                            <path d="M1475,892.372C1475,891.743 1474.5,891.14 1473.61,890.695C1472.72,890.25 1471.51,890 1470.26,890C1460.71,890 1439.29,890 1429.74,890C1428.49,890 1427.28,890.25 1426.39,890.695C1425.5,891.14 1425,891.743 1425,892.372C1425,893.959 1425,896.041 1425,897.628C1425,898.257 1425.5,898.86 1426.39,899.305C1427.28,899.75 1428.49,900 1429.74,900C1439.29,900 1460.71,900 1470.26,900C1471.51,900 1472.72,899.75 1473.61,899.305C1474.5,898.86 1475,898.257 1475,897.628C1475,896.041 1475,893.959 1475,892.372Z" style="fill:rgb(255,228,180);"/>
                        </g>
                        <g transform="matrix(0.479795,0,0,1.05493,312.394,-52.0064)">
                            <rect x="1420" y="902.437" width="59.381" height="62.563" style="fill:rgb(255,228,180);"/>
                        </g>
                    </g>
                    <g transform="matrix(0.694897,0,0,1,0,0)">
                        <path d="M1400,1000L1400,1080L1340,1080L1400,1000Z" style="fill:rgb(254,208,127);"/>
                    </g>
                    <g transform="matrix(-0.694897,0,0,1,2015.2,0)">
                        <path d="M1400,1000L1400,1080L1340,1080L1400,1000Z" style="fill:rgb(254,208,127);"/>
                    </g>
                    <g transform="matrix(-0.694897,0,0,1,2223.67,1.13687e-13)">
                        <path d="M1400,1000L1400,1080L1340,1080L1400,1000Z" style="fill:rgb(254,208,127);"/>
                    </g>
                    <g transform="matrix(-0.694897,0,0,1,2432.14,0)">
                        <path d="M1400,1000L1400,1080L1340,1080L1400,1000Z" style="fill:rgb(254,208,127);"/>
                    </g>
                    <g transform="matrix(-0.694897,0,0,1,2640.61,0)">
                        <path d="M1400,1000L1400,1080L1340,1080L1400,1000Z" style="fill:rgb(254,208,127);"/>
                    </g>
                    <g transform="matrix(0.694897,0,0,1,208.469,0)">
                        <path d="M1400,1000L1400,1080L1340,1080L1400,1000Z" style="fill:rgb(254,208,127);"/>
                    </g>
                    <g transform="matrix(0.694897,0,0,1,208.469,0)">
                        <path d="M1400,1000L1400,1080L1340,1080L1400,1000Z" style="fill:rgb(254,208,127);"/>
                    </g>
                    <g transform="matrix(0.694897,0,0,1,625.407,0)">
                        <path d="M1400,1000L1400,1080L1340,1080L1400,1000Z" style="fill:rgb(254,208,127);"/>
                    </g>
                    <g transform="matrix(0.694897,0,0,1,416.938,1.13687e-13)">
                        <path d="M1400,1000L1400,1080L1340,1080L1400,1000Z" style="fill:rgb(254,208,127);"/>
                    </g>
                    <g transform="matrix(0.694897,0,0,1,0,0)">
                        <path d="M1450,1000L1480,1080L1420,1080L1450,1000Z" style="fill:rgb(254,208,127);"/>
                    </g>
                    <g transform="matrix(0.694897,0,0,1,208.469,-1.13687e-13)">
                        <path d="M1450,1000L1480,1080L1420,1080L1450,1000Z" style="fill:rgb(254,208,127);"/>
                    </g>
                    <g transform="matrix(0.694897,0,0,1,416.938,-1.13687e-13)">
                        <path d="M1450,1000L1480,1080L1420,1080L1450,1000Z" style="fill:rgb(254,208,127);"/>
                    </g>
                    <g transform="matrix(0.694897,0,0,1,625.407,-1.13687e-13)">
                        <path d="M1450,1000L1480,1080L1420,1080L1450,1000Z" style="fill:rgb(254,208,127);"/>
                    </g>
                    <g transform="matrix(1,0,0,1,6.94897,0)">
                        <g transform="matrix(0.694897,0,0,1,0,0)">
                            <path d="M1360,1091C1360,1088.24 1357.76,1086 1355,1086L1345,1086C1342.24,1086 1340,1088.24 1340,1091L1340,1110C1340,1112.76 1342.24,1115 1345,1115L1355,1115C1357.76,1115 1360,1112.76 1360,1110L1360,1091Z" style="fill:rgb(255,228,180);"/>
                        </g>
                        <g transform="matrix(0.694897,0,0,1,-20.8469,0)">
                            <path d="M1360,1091C1360,1088.24 1357.76,1086 1355,1086L1345,1086C1342.24,1086 1340,1088.24 1340,1091L1340,1110C1340,1112.76 1342.24,1115 1345,1115L1355,1115C1357.76,1115 1360,1112.76 1360,1110L1360,1091Z" style="fill:rgb(255,228,180);"/>
                        </g>
                        <g transform="matrix(0.694897,0,0,1,20.8469,0)">
                            <path d="M1360,1091C1360,1088.24 1357.76,1086 1355,1086L1345,1086C1342.24,1086 1340,1088.24 1340,1091L1340,1110C1340,1112.76 1342.24,1115 1345,1115L1355,1115C1357.76,1115 1360,1112.76 1360,1110L1360,1091Z" style="fill:rgb(255,228,180);"/>
                        </g>
                        <g transform="matrix(0.694897,0,0,1,41.6938,0)">
                            <path d="M1360,1091C1360,1088.24 1357.76,1086 1355,1086L1345,1086C1342.24,1086 1340,1088.24 1340,1091L1340,1110C1340,1112.76 1342.24,1115 1345,1115L1355,1115C1357.76,1115 1360,1112.76 1360,1110L1360,1091Z" style="fill:rgb(255,228,180);"/>
                        </g>
                        <g transform="matrix(0.694897,0,0,1,62.5407,0)">
                            <path d="M1360,1091C1360,1088.24 1357.76,1086 1355,1086L1345,1086C1342.24,1086 1340,1088.24 1340,1091L1340,1110C1340,1112.76 1342.24,1115 1345,1115L1355,1115C1357.76,1115 1360,1112.76 1360,1110L1360,1091Z" style="fill:rgb(255,228,180);"/>
                        </g>
                        <g transform="matrix(0.694897,0,0,1,83.3876,0)">
                            <path d="M1360,1091C1360,1088.24 1357.76,1086 1355,1086L1345,1086C1342.24,1086 1340,1088.24 1340,1091L1340,1110C1340,1112.76 1342.24,1115 1345,1115L1355,1115C1357.76,1115 1360,1112.76 1360,1110L1360,1091Z" style="fill:rgb(255,228,180);"/>
                        </g>
                        <g transform="matrix(0.694897,0,0,1,104.235,0)">
                            <path d="M1360,1091C1360,1088.24 1357.76,1086 1355,1086L1345,1086C1342.24,1086 1340,1088.24 1340,1091L1340,1110C1340,1112.76 1342.24,1115 1345,1115L1355,1115C1357.76,1115 1360,1112.76 1360,1110L1360,1091Z" style="fill:rgb(255,228,180);"/>
                        </g>
                        <g transform="matrix(0.694897,0,0,1,125.081,0)">
                            <path d="M1360,1091C1360,1088.24 1357.76,1086 1355,1086L1345,1086C1342.24,1086 1340,1088.24 1340,1091L1340,1110C1340,1112.76 1342.24,1115 1345,1115L1355,1115C1357.76,1115 1360,1112.76 1360,1110L1360,1091Z" style="fill:rgb(255,228,180);"/>
                        </g>
                        <g transform="matrix(0.694897,0,0,1,145.928,0)">
                            <path d="M1360,1091C1360,1088.24 1357.76,1086 1355,1086L1345,1086C1342.24,1086 1340,1088.24 1340,1091L1340,1110C1340,1112.76 1342.24,1115 1345,1115L1355,1115C1357.76,1115 1360,1112.76 1360,1110L1360,1091Z" style="fill:rgb(255,228,180);"/>
                        </g>
                        <g transform="matrix(0.694897,0,0,1,166.775,0)">
                            <path d="M1360,1091C1360,1088.24 1357.76,1086 1355,1086L1345,1086C1342.24,1086 1340,1088.24 1340,1091L1340,1110C1340,1112.76 1342.24,1115 1345,1115L1355,1115C1357.76,1115 1360,1112.76 1360,1110L1360,1091Z" style="fill:rgb(255,228,180);"/>
                        </g>
                        <g transform="matrix(0.694897,0,0,1,187.622,0)">
                            <path d="M1360,1091C1360,1088.24 1357.76,1086 1355,1086L1345,1086C1342.24,1086 1340,1088.24 1340,1091L1340,1110C1340,1112.76 1342.24,1115 1345,1115L1355,1115C1357.76,1115 1360,1112.76 1360,1110L1360,1091Z" style="fill:rgb(255,228,180);"/>
                        </g>
                        <g transform="matrix(0.694897,0,0,1,208.469,0)">
                            <path d="M1360,1091C1360,1088.24 1357.76,1086 1355,1086L1345,1086C1342.24,1086 1340,1088.24 1340,1091L1340,1110C1340,1112.76 1342.24,1115 1345,1115L1355,1115C1357.76,1115 1360,1112.76 1360,1110L1360,1091Z" style="fill:rgb(255,228,180);"/>
                        </g>
                        <g transform="matrix(0.694897,0,0,1,229.316,0)">
                            <path d="M1360,1091C1360,1088.24 1357.76,1086 1355,1086L1345,1086C1342.24,1086 1340,1088.24 1340,1091L1340,1110C1340,1112.76 1342.24,1115 1345,1115L1355,1115C1357.76,1115 1360,1112.76 1360,1110L1360,1091Z" style="fill:rgb(255,228,180);"/>
                        </g>
                        <g transform="matrix(0.694897,0,0,1,250.163,0)">
                            <path d="M1360,1091C1360,1088.24 1357.76,1086 1355,1086L1345,1086C1342.24,1086 1340,1088.24 1340,1091L1340,1110C1340,1112.76 1342.24,1115 1345,1115L1355,1115C1357.76,1115 1360,1112.76 1360,1110L1360,1091Z" style="fill:rgb(255,228,180);"/>
                        </g>
                        <g transform="matrix(0.694897,0,0,1,271.01,0)">
                            <path d="M1360,1091C1360,1088.24 1357.76,1086 1355,1086L1345,1086C1342.24,1086 1340,1088.24 1340,1091L1340,1110C1340,1112.76 1342.24,1115 1345,1115L1355,1115C1357.76,1115 1360,1112.76 1360,1110L1360,1091Z" style="fill:rgb(255,228,180);"/>
                        </g>
                        <g transform="matrix(0.694897,0,0,1,291.857,0)">
                            <path d="M1360,1091C1360,1088.24 1357.76,1086 1355,1086L1345,1086C1342.24,1086 1340,1088.24 1340,1091L1340,1110C1340,1112.76 1342.24,1115 1345,1115L1355,1115C1357.76,1115 1360,1112.76 1360,1110L1360,1091Z" style="fill:rgb(255,228,180);"/>
                        </g>
                        <g transform="matrix(0.694897,0,0,1,312.704,0)">
                            <path d="M1360,1091C1360,1088.24 1357.76,1086 1355,1086L1345,1086C1342.24,1086 1340,1088.24 1340,1091L1340,1110C1340,1112.76 1342.24,1115 1345,1115L1355,1115C1357.76,1115 1360,1112.76 1360,1110L1360,1091Z" style="fill:rgb(255,228,180);"/>
                        </g>
                        <g transform="matrix(0.694897,0,0,1,333.55,2.22045e-16)">
                            <path d="M1360,1091C1360,1088.24 1357.76,1086 1355,1086L1345,1086C1342.24,1086 1340,1088.24 1340,1091L1340,1110C1340,1112.76 1342.24,1115 1345,1115L1355,1115C1357.76,1115 1360,1112.76 1360,1110L1360,1091Z" style="fill:rgb(255,228,180);"/>
                        </g>
                        <g transform="matrix(0.694897,0,0,1,354.397,2.22045e-16)">
                            <path d="M1360,1091C1360,1088.24 1357.76,1086 1355,1086L1345,1086C1342.24,1086 1340,1088.24 1340,1091L1340,1110C1340,1112.76 1342.24,1115 1345,1115L1355,1115C1357.76,1115 1360,1112.76 1360,1110L1360,1091Z" style="fill:rgb(255,228,180);"/>
                        </g>
                        <g transform="matrix(0.694897,0,0,1,375.244,2.22045e-16)">
                            <path d="M1360,1091C1360,1088.24 1357.76,1086 1355,1086L1345,1086C1342.24,1086 1340,1088.24 1340,1091L1340,1110C1340,1112.76 1342.24,1115 1345,1115L1355,1115C1357.76,1115 1360,1112.76 1360,1110L1360,1091Z" style="fill:rgb(255,228,180);"/>
                        </g>
                        <g transform="matrix(0.694897,0,0,1,396.091,2.22045e-16)">
                            <path d="M1360,1091C1360,1088.24 1357.76,1086 1355,1086L1345,1086C1342.24,1086 1340,1088.24 1340,1091L1340,1110C1340,1112.76 1342.24,1115 1345,1115L1355,1115C1357.76,1115 1360,1112.76 1360,1110L1360,1091Z" style="fill:rgb(255,228,180);"/>
                        </g>
                        <g transform="matrix(0.694897,0,0,1,416.938,2.22045e-16)">
                            <path d="M1360,1091C1360,1088.24 1357.76,1086 1355,1086L1345,1086C1342.24,1086 1340,1088.24 1340,1091L1340,1110C1340,1112.76 1342.24,1115 1345,1115L1355,1115C1357.76,1115 1360,1112.76 1360,1110L1360,1091Z" style="fill:rgb(255,228,180);"/>
                        </g>
                        <g transform="matrix(0.694897,0,0,1,437.785,2.22045e-16)">
                            <path d="M1360,1091C1360,1088.24 1357.76,1086 1355,1086L1345,1086C1342.24,1086 1340,1088.24 1340,1091L1340,1110C1340,1112.76 1342.24,1115 1345,1115L1355,1115C1357.76,1115 1360,1112.76 1360,1110L1360,1091Z" style="fill:rgb(255,228,180);"/>
                        </g>
                        <g transform="matrix(0.694897,0,0,1,458.632,2.22045e-16)">
                            <path d="M1360,1091C1360,1088.24 1357.76,1086 1355,1086L1345,1086C1342.24,1086 1340,1088.24 1340,1091L1340,1110C1340,1112.76 1342.24,1115 1345,1115L1355,1115C1357.76,1115 1360,1112.76 1360,1110L1360,1091Z" style="fill:rgb(255,228,180);"/>
                        </g>
                        <g transform="matrix(0.694897,0,0,1,479.479,2.22045e-16)">
                            <path d="M1360,1091C1360,1088.24 1357.76,1086 1355,1086L1345,1086C1342.24,1086 1340,1088.24 1340,1091L1340,1110C1340,1112.76 1342.24,1115 1345,1115L1355,1115C1357.76,1115 1360,1112.76 1360,1110L1360,1091Z" style="fill:rgb(255,228,180);"/>
                        </g>
                        <g transform="matrix(0.694897,0,0,1,500.326,2.22045e-16)">
                            <path d="M1360,1091C1360,1088.24 1357.76,1086 1355,1086L1345,1086C1342.24,1086 1340,1088.24 1340,1091L1340,1110C1340,1112.76 1342.24,1115 1345,1115L1355,1115C1357.76,1115 1360,1112.76 1360,1110L1360,1091Z" style="fill:rgb(255,228,180);"/>
                        </g>
                        <g transform="matrix(0.694897,0,0,1,521.173,2.22045e-16)">
                            <path d="M1360,1091C1360,1088.24 1357.76,1086 1355,1086L1345,1086C1342.24,1086 1340,1088.24 1340,1091L1340,1110C1340,1112.76 1342.24,1115 1345,1115L1355,1115C1357.76,1115 1360,1112.76 1360,1110L1360,1091Z" style="fill:rgb(255,228,180);"/>
                        </g>
                        <g transform="matrix(0.694897,0,0,1,542.02,2.22045e-16)">
                            <path d="M1360,1091C1360,1088.24 1357.76,1086 1355,1086L1345,1086C1342.24,1086 1340,1088.24 1340,1091L1340,1110C1340,1112.76 1342.24,1115 1345,1115L1355,1115C1357.76,1115 1360,1112.76 1360,1110L1360,1091Z" style="fill:rgb(255,228,180);"/>
                        </g>
                        <g transform="matrix(0.694897,0,0,1,562.866,2.22045e-16)">
                            <path d="M1360,1091C1360,1088.24 1357.76,1086 1355,1086L1345,1086C1342.24,1086 1340,1088.24 1340,1091L1340,1110C1340,1112.76 1342.24,1115 1345,1115L1355,1115C1357.76,1115 1360,1112.76 1360,1110L1360,1091Z" style="fill:rgb(255,228,180);"/>
                        </g>
                        <g transform="matrix(0.694897,0,0,1,583.713,2.22045e-16)">
                            <path d="M1360,1091C1360,1088.24 1357.76,1086 1355,1086L1345,1086C1342.24,1086 1340,1088.24 1340,1091L1340,1110C1340,1112.76 1342.24,1115 1345,1115L1355,1115C1357.76,1115 1360,1112.76 1360,1110L1360,1091Z" style="fill:rgb(255,228,180);"/>
                        </g>
                        <g transform="matrix(0.694897,0,0,1,604.56,2.22045e-16)">
                            <path d="M1360,1091C1360,1088.24 1357.76,1086 1355,1086L1345,1086C1342.24,1086 1340,1088.24 1340,1091L1340,1110C1340,1112.76 1342.24,1115 1345,1115L1355,1115C1357.76,1115 1360,1112.76 1360,1110L1360,1091Z" style="fill:rgb(255,228,180);"/>
                        </g>
                        <g transform="matrix(0.694897,0,0,1,625.407,2.22045e-16)">
                            <path d="M1360,1091C1360,1088.24 1357.76,1086 1355,1086L1345,1086C1342.24,1086 1340,1088.24 1340,1091L1340,1110C1340,1112.76 1342.24,1115 1345,1115L1355,1115C1357.76,1115 1360,1112.76 1360,1110L1360,1091Z" style="fill:rgb(255,228,180);"/>
                        </g>
                        <g transform="matrix(0.694897,0,0,1,646.254,2.22045e-16)">
                            <path d="M1360,1091C1360,1088.24 1357.76,1086 1355,1086L1345,1086C1342.24,1086 1340,1088.24 1340,1091L1340,1110C1340,1112.76 1342.24,1115 1345,1115L1355,1115C1357.76,1115 1360,1112.76 1360,1110L1360,1091Z" style="fill:rgb(255,228,180);"/>
                        </g>
                        <g transform="matrix(0.694897,0,0,1,667.101,2.22045e-16)">
                            <path d="M1360,1091C1360,1088.24 1357.76,1086 1355,1086L1345,1086C1342.24,1086 1340,1088.24 1340,1091L1340,1110C1340,1112.76 1342.24,1115 1345,1115L1355,1115C1357.76,1115 1360,1112.76 1360,1110L1360,1091Z" style="fill:rgb(255,228,180);"/>
                        </g>
                        <g transform="matrix(0.694897,0,0,1,687.948,2.22045e-16)">
                            <path d="M1360,1091C1360,1088.24 1357.76,1086 1355,1086L1345,1086C1342.24,1086 1340,1088.24 1340,1091L1340,1110C1340,1112.76 1342.24,1115 1345,1115L1355,1115C1357.76,1115 1360,1112.76 1360,1110L1360,1091Z" style="fill:rgb(255,228,180);"/>
                        </g>
                        <g transform="matrix(0.694897,0,0,1,708.795,2.22045e-16)">
                            <path d="M1360,1091C1360,1088.24 1357.76,1086 1355,1086L1345,1086C1342.24,1086 1340,1088.24 1340,1091L1340,1110C1340,1112.76 1342.24,1115 1345,1115L1355,1115C1357.76,1115 1360,1112.76 1360,1110L1360,1091Z" style="fill:rgb(255,228,180);"/>
                        </g>
                        <g transform="matrix(0.694897,0,0,1,729.642,2.22045e-16)">
                            <path d="M1360,1091C1360,1088.24 1357.76,1086 1355,1086L1345,1086C1342.24,1086 1340,1088.24 1340,1091L1340,1110C1340,1112.76 1342.24,1115 1345,1115L1355,1115C1357.76,1115 1360,1112.76 1360,1110L1360,1091Z" style="fill:rgb(255,228,180);"/>
                        </g>
                        <g transform="matrix(0.694897,0,0,1,750.489,2.22045e-16)">
                            <path d="M1360,1091C1360,1088.24 1357.76,1086 1355,1086L1345,1086C1342.24,1086 1340,1088.24 1340,1091L1340,1110C1340,1112.76 1342.24,1115 1345,1115L1355,1115C1357.76,1115 1360,1112.76 1360,1110L1360,1091Z" style="fill:rgb(255,228,180);"/>
                        </g>
                        <g transform="matrix(0.694897,0,0,1,771.336,2.22045e-16)">
                            <path d="M1360,1091C1360,1088.24 1357.76,1086 1355,1086L1345,1086C1342.24,1086 1340,1088.24 1340,1091L1340,1110C1340,1112.76 1342.24,1115 1345,1115L1355,1115C1357.76,1115 1360,1112.76 1360,1110L1360,1091Z" style="fill:rgb(255,228,180);"/>
                        </g>
                    </g>
                    <g transform="matrix(0.694897,0,0,1.11111,0,-124.444)">
                        <rect x="1340" y="1120" width="60" height="720" style="fill:rgb(254,208,127);"/>
                    </g>
                    <g transform="matrix(0.694897,0,0,1.11111,55.5917,-129.444)">
                        <rect x="1340" y="1120" width="60" height="720" style="fill:rgb(254,208,127);"/>
                    </g>
                    <g transform="matrix(0.694897,0,0,1.11111,111.183,-129.444)">
                        <rect x="1340" y="1120" width="60" height="720" style="fill:rgb(254,208,127);"/>
                    </g>
                    <g transform="matrix(0.694897,0,0,1.11111,208.469,-129.444)">
                        <rect x="1340" y="1120" width="60" height="720" style="fill:rgb(254,208,127);"/>
                    </g>
                    <g transform="matrix(0.694897,0,0,1.11111,264.061,-129.444)">
                        <rect x="1340" y="1120" width="60" height="720" style="fill:rgb(254,208,127);"/>
                    </g>
                    <g transform="matrix(0.694897,0,0,1.11111,319.653,-129.444)">
                        <rect x="1340" y="1120" width="60" height="720" style="fill:rgb(254,208,127);"/>
                    </g>
                    <g transform="matrix(0.694897,0,0,1.11111,416.938,-129.444)">
                        <rect x="1340" y="1120" width="60" height="720" style="fill:rgb(254,208,127);"/>
                    </g>
                    <g transform="matrix(0.694897,0,0,1.11111,472.53,-129.444)">
                        <rect x="1340" y="1120" width="60" height="720" style="fill:rgb(254,208,127);"/>
                    </g>
                    <g transform="matrix(0.694897,0,0,1.11111,528.122,-129.444)">
                        <rect x="1340" y="1120" width="60" height="720" style="fill:rgb(254,208,127);"/>
                    </g>
                    <g transform="matrix(0.694897,0,0,1.11111,625.407,-129.444)">
                        <rect x="1340" y="1120" width="60" height="720" style="fill:rgb(254,208,127);"/>
                    </g>
                    <g transform="matrix(0.694897,0,0,1.11111,680.999,-129.444)">
                        <rect x="1340" y="1120" width="60" height="720" style="fill:rgb(254,208,127);"/>
                    </g>
                    <g transform="matrix(0.694897,0,0,1.11111,736.591,-129.444)">
                        <rect x="1340" y="1120" width="60" height="720" style="fill:rgb(254,208,127);"/>
                    </g>
                    <g>
                        <g transform="matrix(0.694897,0,0,2,0,-1220)">
                            <rect x="1560" y="1200" width="80" height="20" style="fill:rgb(254,208,127);"/>
                        </g>
                        <g transform="matrix(0.694897,0,0,2,1.58001e-13,-1120)">
                            <rect x="1560" y="1200" width="80" height="20" style="fill:rgb(254,208,127);"/>
                        </g>
                        <g transform="matrix(0.694897,0,0,2,1.58001e-13,-1020)">
                            <rect x="1560" y="1200" width="80" height="20" style="fill:rgb(254,208,127);"/>
                        </g>
                        <g transform="matrix(0.694897,0,0,2,1.58001e-13,-920)">
                            <rect x="1560" y="1200" width="80" height="20" style="fill:rgb(254,208,127);"/>
                        </g>
                        <g transform="matrix(0.694897,0,0,2,1.58001e-13,-820)">
                            <rect x="1560" y="1200" width="80" height="20" style="fill:rgb(254,208,127);"/>
                        </g>
                        <g transform="matrix(0.694897,0,0,2,0,-720)">
                            <rect x="1560" y="1200" width="80" height="20" style="fill:rgb(254,208,127);"/>
                        </g>
                        <g transform="matrix(0.694897,0,0,2,1.58001e-13,-620)">
                            <rect x="1560" y="1200" width="80" height="20" style="fill:rgb(254,208,127);"/>
                        </g>
                    </g>
                    <g transform="matrix(1,0,0,1,-180.673,-1.02318e-12)">
                        <g transform="matrix(0.694897,0,0,2,0,-1220)">
                            <rect x="1560" y="1200" width="80" height="20" style="fill:rgb(254,208,127);"/>
                        </g>
                        <g transform="matrix(0.694897,0,0,2,1.58001e-13,-1120)">
                            <rect x="1560" y="1200" width="80" height="20" style="fill:rgb(254,208,127);"/>
                        </g>
                        <g transform="matrix(0.694897,0,0,2,1.58001e-13,-1020)">
                            <rect x="1560" y="1200" width="80" height="20" style="fill:rgb(254,208,127);"/>
                        </g>
                        <g transform="matrix(0.694897,0,0,2,1.58001e-13,-920)">
                            <rect x="1560" y="1200" width="80" height="20" style="fill:rgb(254,208,127);"/>
                        </g>
                        <g transform="matrix(0.694897,0,0,2,1.58001e-13,-820)">
                            <rect x="1560" y="1200" width="80" height="20" style="fill:rgb(254,208,127);"/>
                        </g>
                        <g transform="matrix(0.694897,0,0,2,0,-720)">
                            <rect x="1560" y="1200" width="80" height="20" style="fill:rgb(254,208,127);"/>
                        </g>
                        <g transform="matrix(0.694897,0,0,2,1.58001e-13,-620)">
                            <rect x="1560" y="1200" width="80" height="20" style="fill:rgb(254,208,127);"/>
                        </g>
                    </g>
                    <g transform="matrix(1,0,0,1,208.469,-1.02318e-12)">
                        <g transform="matrix(0.694897,0,0,2,0,-1220)">
                            <rect x="1560" y="1200" width="80" height="20" style="fill:rgb(254,208,127);"/>
                        </g>
                        <g transform="matrix(0.694897,0,0,2,1.58001e-13,-1120)">
                            <rect x="1560" y="1200" width="80" height="20" style="fill:rgb(254,208,127);"/>
                        </g>
                        <g transform="matrix(0.694897,0,0,2,1.58001e-13,-1020)">
                            <rect x="1560" y="1200" width="80" height="20" style="fill:rgb(254,208,127);"/>
                        </g>
                        <g transform="matrix(0.694897,0,0,2,1.58001e-13,-920)">
                            <rect x="1560" y="1200" width="80" height="20" style="fill:rgb(254,208,127);"/>
                        </g>
                        <g transform="matrix(0.694897,0,0,2,1.58001e-13,-820)">
                            <rect x="1560" y="1200" width="80" height="20" style="fill:rgb(254,208,127);"/>
                        </g>
                        <g transform="matrix(0.694897,0,0,2,0,-720)">
                            <rect x="1560" y="1200" width="80" height="20" style="fill:rgb(254,208,127);"/>
                        </g>
                        <g transform="matrix(0.694897,0,0,2,1.58001e-13,-620)">
                            <rect x="1560" y="1200" width="80" height="20" style="fill:rgb(254,208,127);"/>
                        </g>
                    </g>
                    <g transform="matrix(1,0,0,1,416.938,-1.02318e-12)">
                        <g transform="matrix(0.694897,0,0,2,0,-1220)">
                            <rect x="1560" y="1200" width="80" height="20" style="fill:rgb(254,208,127);"/>
                        </g>
                        <g transform="matrix(0.694897,0,0,2,1.58001e-13,-1120)">
                            <rect x="1560" y="1200" width="80" height="20" style="fill:rgb(254,208,127);"/>
                        </g>
                        <g transform="matrix(0.694897,0,0,2,1.58001e-13,-1020)">
                            <rect x="1560" y="1200" width="80" height="20" style="fill:rgb(254,208,127);"/>
                        </g>
                        <g transform="matrix(0.694897,0,0,2,1.58001e-13,-920)">
                            <rect x="1560" y="1200" width="80" height="20" style="fill:rgb(254,208,127);"/>
                        </g>
                        <g transform="matrix(0.694897,0,0,2,1.58001e-13,-820)">
                            <rect x="1560" y="1200" width="80" height="20" style="fill:rgb(254,208,127);"/>
                        </g>
                        <g transform="matrix(0.694897,0,0,2,0,-720)">
                            <rect x="1560" y="1200" width="80" height="20" style="fill:rgb(254,208,127);"/>
                        </g>
                        <g transform="matrix(0.694897,0,0,2,1.58001e-13,-620)">
                            <rect x="1560" y="1200" width="80" height="20" style="fill:rgb(254,208,127);"/>
                        </g>
                    </g>
                    <g transform="matrix(1,0,0,1,597.611,-1.02318e-12)">
                        <g transform="matrix(0.694897,0,0,2,0,-1220)">
                            <rect x="1560" y="1200" width="80" height="20" style="fill:rgb(254,208,127);"/>
                        </g>
                        <g transform="matrix(0.694897,0,0,2,1.58001e-13,-1120)">
                            <rect x="1560" y="1200" width="80" height="20" style="fill:rgb(254,208,127);"/>
                        </g>
                        <g transform="matrix(0.694897,0,0,2,1.58001e-13,-1020)">
                            <rect x="1560" y="1200" width="80" height="20" style="fill:rgb(254,208,127);"/>
                        </g>
                        <g transform="matrix(0.694897,0,0,2,1.58001e-13,-920)">
                            <rect x="1560" y="1200" width="80" height="20" style="fill:rgb(254,208,127);"/>
                        </g>
                        <g transform="matrix(0.694897,0,0,2,1.58001e-13,-820)">
                            <rect x="1560" y="1200" width="80" height="20" style="fill:rgb(254,208,127);"/>
                        </g>
                        <g transform="matrix(0.694897,0,0,2,0,-720)">
                            <rect x="1560" y="1200" width="80" height="20" style="fill:rgb(254,208,127);"/>
                        </g>
                        <g transform="matrix(0.694897,0,0,2,1.58001e-13,-620)">
                            <rect x="1560" y="1200" width="80" height="20" style="fill:rgb(254,208,127);"/>
                        </g>
                    </g>
                </g>
                <g id="Четвертое-здание" serif:id="Четвертое здание" transform="matrix(1.14582,0,0,1.07586,-77.628,-145.66)">
                    <g transform="matrix(0.451658,0,0,1,-18.0663,0)">
                        <rect x="2740" y="1100" width="1160" height="820" style="fill:rgb(255,228,180);"/>
                    </g>
                    <g transform="matrix(0.451658,0,0,0.979592,-108.398,39.1837)">
                        <rect x="3000" y="1400" width="80" height="100" style="fill:rgb(254,208,127);"/>
                    </g>
                    <g transform="matrix(0.451658,0,0,1.56735,0,-607.347)">
                        <path d="M3860,1100L2700,1100C2700,1100 2935.57,1018.77 2982.08,1002.73C2987.32,1000.92 2992.83,1000 2998.38,1000L3561.62,1000C3567.17,1000 3572.68,1000.92 3577.92,1002.73C3624.43,1018.77 3860,1100 3860,1100Z" style="fill:rgb(254,208,127);"/>
                    </g>
                    <g transform="matrix(0.451658,0,0,1,0,0)">
                        <rect x="2700" y="1100" width="200" height="820" style="fill:rgb(254,208,127);"/>
                    </g>
                    <g transform="matrix(0.451658,0,0,0.979592,-108.398,78.3673)">
                        <rect x="3000" y="1400" width="80" height="100" style="fill:rgb(255,228,180);"/>
                    </g>
                    <g transform="matrix(0.451658,0,0,0.979592,-108.398,-78.3673)">
                        <rect x="3000" y="1400" width="80" height="100" style="fill:rgb(255,228,180);"/>
                    </g>
                    <g transform="matrix(0.451658,0,0,0.979592,-108.398,-235.102)">
                        <rect x="3000" y="1400" width="80" height="100" style="fill:rgb(255,228,180);"/>
                    </g>
                    <g transform="matrix(0.451658,0,0,0.979592,-108.398,235.102)">
                        <rect x="3000" y="1400" width="80" height="100" style="fill:rgb(255,228,180);"/>
                    </g>
                    <g transform="matrix(0.451658,0,0,1,433.592,0)">
                        <rect x="2700" y="1100" width="200" height="820" style="fill:rgb(254,208,127);"/>
                        <g transform="matrix(1,0,0,0.979592,-240,78.3673)">
                            <rect x="3000" y="1400" width="80" height="100" style="fill:rgb(255,228,180);"/>
                        </g>
                        <g transform="matrix(1,0,0,0.979592,-240,235.102)">
                            <rect x="3000" y="1400" width="80" height="100" style="fill:rgb(255,228,180);"/>
                        </g>
                    </g>
                    <g>
                        <g transform="matrix(0.0752764,0,0,0.979592,1388.1,58.7755)">
                            <rect x="3700" y="1200" width="120" height="60" style="fill:rgb(255,228,180);"/>
                        </g>
                        <g transform="matrix(0.0752764,0,0,0.979592,1401.65,58.7755)">
                            <rect x="3700" y="1200" width="120" height="60" style="fill:rgb(255,228,180);"/>
                        </g>
                        <g transform="matrix(0.0752764,0,0,0.979592,1415.2,58.7755)">
                            <rect x="3700" y="1200" width="120" height="60" style="fill:rgb(255,228,180);"/>
                        </g>
                        <g transform="matrix(0.0752764,0,0,0.979592,1428.75,58.7755)">
                            <rect x="3700" y="1200" width="120" height="60" style="fill:rgb(255,228,180);"/>
                        </g>
                        <g transform="matrix(0.0752764,0,0,0.979592,1442.3,58.7755)">
                            <rect x="3700" y="1200" width="120" height="60" style="fill:rgb(255,228,180);"/>
                        </g>
                    </g>
                    <g transform="matrix(0.451658,0,0,0.979592,0,43.102)">
                        <path d="M2900,1080L2700,1080C2700,1080 2731.93,1016.15 2744.76,990.49C2747.97,984.061 2754.54,980 2761.73,980C2780.97,980 2819.03,980 2838.27,980C2845.46,980 2852.03,984.061 2855.24,990.49C2868.08,1016.15 2900,1080 2900,1080Z" style="fill:rgb(254,208,127);"/>
                    </g>
                    <g transform="matrix(0.451658,0,0,0.979592,433.592,43.102)">
                        <path d="M2900,1080L2700,1080L2750,980L2850,980L2900,1080Z" style="fill:rgb(254,208,127);"/>
                    </g>
                    <g transform="matrix(0.451658,0,0,1.215,0,-158.557)">
                        <rect x="3400" y="840" width="100" height="129" style="fill:rgb(255,228,180);"/>
                    </g>
                    <g transform="matrix(0.301106,0,0,0.606531,421.548,429.461)">
                        <path d="M2860,1070L2740,1070L2770,970L2830,970L2860,1070Z" style="fill:rgb(255,228,180);"/>
                    </g>
                    <g transform="matrix(0.301106,0,0,0.606531,855.14,429.461)">
                        <path d="M2860,1070L2740,1070L2770,970L2830,970L2860,1070Z" style="fill:rgb(255,228,180);"/>
                    </g>
                    <g transform="matrix(0.451658,0,0,0.979592,433.592,39.1837)">
                        <rect x="2760" y="970" width="80" height="14" style="fill:rgb(255,228,180);"/>
                    </g>
                    <g transform="matrix(0.451658,0,0,0.979592,0,39.1837)">
                        <path d="M3800,970L3720,970L3740,920L3780,920L3800,970Z" style="fill:rgb(255,228,180);"/>
                    </g>
                    <g transform="matrix(0.451658,0,0,0.979592,0,39.1837)">
                        <path d="M3760,860L3780,920L3740,920L3760,860Z" style="fill:rgb(255,228,180);"/>
                    </g>
                    <g transform="matrix(0.982759,0,0,0.979592,32.2391,-146.939)">
                        <g transform="matrix(0.722653,0,0,1,-785.886,-2.27374e-13)">
                            <rect x="2950" y="1500" width="50" height="100" style="fill:rgb(254,208,127);"/>
                        </g>
                        <g transform="matrix(0.722653,0,0,1,-695.554,-2.27374e-13)">
                            <rect x="2950" y="1500" width="50" height="100" style="fill:rgb(254,208,127);"/>
                        </g>
                        <g transform="matrix(0.722653,0,0,1,-650.388,-2.27374e-13)">
                            <rect x="2950" y="1500" width="50" height="100" style="fill:rgb(254,208,127);"/>
                        </g>
                        <g transform="matrix(0.722653,0,0,1,-605.222,-2.27374e-13)">
                            <rect x="2950" y="1500" width="50" height="100" style="fill:rgb(254,208,127);"/>
                        </g>
                        <g transform="matrix(0.722653,0,0,1,-560.056,-2.27374e-13)">
                            <rect x="2950" y="1500" width="50" height="100" style="fill:rgb(254,208,127);"/>
                        </g>
                        <g transform="matrix(0.722653,0,0,1,-740.72,-2.27374e-13)">
                            <rect x="2950" y="1500" width="50" height="100" style="fill:rgb(254,208,127);"/>
                        </g>
                    </g>
                    <g transform="matrix(0.982759,0,0,0.979592,32.2391,-303.673)">
                        <g transform="matrix(0.722653,0,0,1,-785.886,-2.27374e-13)">
                            <rect x="2950" y="1500" width="50" height="100" style="fill:rgb(254,208,127);"/>
                        </g>
                        <g transform="matrix(0.722653,0,0,1,-695.554,-2.27374e-13)">
                            <rect x="2950" y="1500" width="50" height="100" style="fill:rgb(254,208,127);"/>
                        </g>
                        <g transform="matrix(0.722653,0,0,1,-650.388,-2.27374e-13)">
                            <rect x="2950" y="1500" width="50" height="100" style="fill:rgb(254,208,127);"/>
                        </g>
                        <g transform="matrix(0.722653,0,0,1,-605.222,-2.27374e-13)">
                            <rect x="2950" y="1500" width="50" height="100" style="fill:rgb(254,208,127);"/>
                        </g>
                        <g transform="matrix(0.722653,0,0,1,-560.056,-2.27374e-13)">
                            <rect x="2950" y="1500" width="50" height="100" style="fill:rgb(254,208,127);"/>
                        </g>
                        <g transform="matrix(0.722653,0,0,1,-740.72,-2.27374e-13)">
                            <rect x="2950" y="1500" width="50" height="100" style="fill:rgb(254,208,127);"/>
                        </g>
                    </g>
                    <g transform="matrix(0.982759,0,0,0.979592,32.2391,9.79592)">
                        <g transform="matrix(0.722653,0,0,1,-785.886,-2.27374e-13)">
                            <rect x="2950" y="1500" width="50" height="100" style="fill:rgb(254,208,127);"/>
                        </g>
                        <g transform="matrix(0.722653,0,0,1,-695.554,-2.27374e-13)">
                            <rect x="2950" y="1500" width="50" height="100" style="fill:rgb(254,208,127);"/>
                        </g>
                        <g transform="matrix(0.722653,0,0,1,-650.388,-2.27374e-13)">
                            <rect x="2950" y="1500" width="50" height="100" style="fill:rgb(254,208,127);"/>
                        </g>
                        <g transform="matrix(0.722653,0,0,1,-605.222,-2.27374e-13)">
                            <rect x="2950" y="1500" width="50" height="100" style="fill:rgb(254,208,127);"/>
                        </g>
                        <g transform="matrix(0.722653,0,0,1,-560.056,-2.27374e-13)">
                            <rect x="2950" y="1500" width="50" height="100" style="fill:rgb(254,208,127);"/>
                        </g>
                        <g transform="matrix(0.722653,0,0,1,-740.72,-2.27374e-13)">
                            <rect x="2950" y="1500" width="50" height="100" style="fill:rgb(254,208,127);"/>
                        </g>
                    </g>
                    <g transform="matrix(0.982759,0,0,0.979592,32.2391,166.531)">
                        <g transform="matrix(0.722653,0,0,1,-785.886,-2.27374e-13)">
                            <rect x="2950" y="1500" width="50" height="100" style="fill:rgb(254,208,127);"/>
                        </g>
                        <g transform="matrix(0.722653,0,0,1,-695.554,-2.27374e-13)">
                            <rect x="2950" y="1500" width="50" height="100" style="fill:rgb(254,208,127);"/>
                        </g>
                        <g transform="matrix(0.722653,0,0,1,-650.388,-2.27374e-13)">
                            <rect x="2950" y="1500" width="50" height="100" style="fill:rgb(254,208,127);"/>
                        </g>
                        <g transform="matrix(0.722653,0,0,1,-605.222,-2.27374e-13)">
                            <rect x="2950" y="1500" width="50" height="100" style="fill:rgb(254,208,127);"/>
                        </g>
                        <g transform="matrix(0.722653,0,0,1,-560.056,-2.27374e-13)">
                            <rect x="2950" y="1500" width="50" height="100" style="fill:rgb(254,208,127);"/>
                        </g>
                        <g transform="matrix(0.722653,0,0,1,-740.72,-2.27374e-13)">
                            <rect x="2950" y="1500" width="50" height="100" style="fill:rgb(254,208,127);"/>
                        </g>
                    </g>
                    <g transform="matrix(0.225829,0,0,0.921969,677.488,96.8067)">
                        <rect x="2900" y="830" width="100" height="170" style="fill:rgb(255,228,180);"/>
                    </g>
                    <g transform="matrix(0.459724,0,0,0.979592,-24.196,39.1837)">
                        <rect x="3000" y="1780" width="560" height="140" style="fill:rgb(254,208,127);"/>
                    </g>
                    <g transform="matrix(1,0,0,1,-300.353,558.367)">
                        <g transform="matrix(0.150553,0,0,0.979592,1105.06,58.7755)">
                            <rect x="3700" y="1200" width="120" height="60" style="fill:rgb(255,228,180);"/>
                        </g>
                        <g transform="matrix(0.150553,0,0,0.979592,1150.22,58.7755)">
                            <rect x="3700" y="1200" width="120" height="60" style="fill:rgb(255,228,180);"/>
                        </g>
                        <g transform="matrix(0.150553,0,0,0.979592,1195.39,58.7755)">
                            <rect x="3700" y="1200" width="120" height="60" style="fill:rgb(255,228,180);"/>
                        </g>
                        <g transform="matrix(0.150553,0,0,0.979592,1240.56,58.7755)">
                            <rect x="3700" y="1200" width="120" height="60" style="fill:rgb(255,228,180);"/>
                        </g>
                        <g transform="matrix(0.150553,0,0,0.979592,1285.72,58.7755)">
                            <rect x="3700" y="1200" width="120" height="60" style="fill:rgb(255,228,180);"/>
                        </g>
                        <g transform="matrix(0.150553,0,0,0.979592,1330.89,58.7755)">
                            <rect x="3700" y="1200" width="120" height="60" style="fill:rgb(255,228,180);"/>
                        </g>
                    </g>
                    <g transform="matrix(1.01887,0,0,1,-25.6934,0)">
                        <g transform="matrix(0.0752764,0,0,0.979592,1083.23,685.714)">
                            <rect x="3700" y="1200" width="120" height="60" style="fill:rgb(255,228,180);"/>
                        </g>
                        <g transform="matrix(0.0752764,0,0,0.979592,1096.78,685.714)">
                            <rect x="3700" y="1200" width="120" height="60" style="fill:rgb(255,228,180);"/>
                        </g>
                        <g transform="matrix(0.0752764,0,0,0.979592,1110.33,685.714)">
                            <rect x="3700" y="1200" width="120" height="60" style="fill:rgb(255,228,180);"/>
                        </g>
                        <g transform="matrix(0.0752764,0,0,0.979592,1123.88,685.714)">
                            <rect x="3700" y="1200" width="120" height="60" style="fill:rgb(255,228,180);"/>
                        </g>
                        <g transform="matrix(0.0752764,0,0,0.979592,1137.43,685.714)">
                            <rect x="3700" y="1200" width="120" height="60" style="fill:rgb(255,228,180);"/>
                        </g>
                        <g transform="matrix(0.0752764,0,0,0.979592,1150.98,685.714)">
                            <rect x="3700" y="1200" width="120" height="60" style="fill:rgb(255,228,180);"/>
                        </g>
                        <g transform="matrix(0.0752764,0,0,0.979592,1164.53,685.714)">
                            <rect x="3700" y="1200" width="120" height="60" style="fill:rgb(255,228,180);"/>
                        </g>
                        <g transform="matrix(0.0752764,0,0,0.979592,1178.08,685.714)">
                            <rect x="3700" y="1200" width="120" height="60" style="fill:rgb(255,228,180);"/>
                        </g>
                        <g transform="matrix(0.0752764,0,0,0.979592,1191.63,685.714)">
                            <rect x="3700" y="1200" width="120" height="60" style="fill:rgb(255,228,180);"/>
                        </g>
                        <g transform="matrix(0.0752764,0,0,0.979592,1205.18,685.714)">
                            <rect x="3700" y="1200" width="120" height="60" style="fill:rgb(255,228,180);"/>
                        </g>
                        <g transform="matrix(0.0752764,0,0,0.979592,1218.73,685.714)">
                            <rect x="3700" y="1200" width="120" height="60" style="fill:rgb(255,228,180);"/>
                        </g>
                        <g transform="matrix(0.0752764,0,0,0.979592,1232.27,685.714)">
                            <rect x="3700" y="1200" width="120" height="60" style="fill:rgb(255,228,180);"/>
                        </g>
                        <g transform="matrix(0.0752764,0,0,0.979592,1245.82,685.714)">
                            <rect x="3700" y="1200" width="120" height="60" style="fill:rgb(255,228,180);"/>
                        </g>
                        <g transform="matrix(0.0752764,0,0,0.979592,1259.37,685.714)">
                            <rect x="3700" y="1200" width="120" height="60" style="fill:rgb(255,228,180);"/>
                        </g>
                        <g transform="matrix(0.0752764,0,0,0.979592,1272.92,685.714)">
                            <rect x="3700" y="1200" width="120" height="60" style="fill:rgb(255,228,180);"/>
                        </g>
                        <g transform="matrix(0.0752764,0,0,0.979592,1286.47,685.714)">
                            <rect x="3700" y="1200" width="120" height="60" style="fill:rgb(255,228,180);"/>
                        </g>
                        <g transform="matrix(0.0752764,0,0,0.979592,1300.02,685.714)">
                            <rect x="3700" y="1200" width="120" height="60" style="fill:rgb(255,228,180);"/>
                        </g>
                        <g transform="matrix(0.0752764,0,0,0.979592,1313.57,685.714)">
                            <rect x="3700" y="1200" width="120" height="60" style="fill:rgb(255,228,180);"/>
                        </g>
                    </g>
                    <g transform="matrix(0.451658,0,0,0.783673,-1.02695e-12,415.347)">
                        <path d="M2840,1767.44C2840,1741.24 2823.01,1720 2802.05,1720L2797.95,1720C2776.99,1720 2760,1741.24 2760,1767.44L2760,1920L2840,1920L2840,1767.44Z" style="fill:rgb(255,228,180);"/>
                    </g>
                    <g transform="matrix(0.451658,0,0,0.783673,433.592,415.347)">
                        <path d="M2840,1767.44C2840,1741.24 2823.01,1720 2802.05,1720L2797.95,1720C2776.99,1720 2760,1741.24 2760,1767.44L2760,1920L2840,1920L2840,1767.44Z" style="fill:rgb(255,228,180);"/>
                    </g>
                </g>
            </g>
        </g>
    </g>
</svg>
