<?xml version="1.0" encoding="UTF-8" standalone="no"?>
<!DOCTYPE svg PUBLIC "-//W3C//DTD SVG 1.1//EN" "http://www.w3.org/Graphics/SVG/1.1/DTD/svg11.dtd">
<svg width="100%" height="100%" viewBox="0 0 3910 1918" version="1.1" xmlns="http://www.w3.org/2000/svg" xmlns:xlink="http://www.w3.org/1999/xlink" xml:space="preserve" xmlns:serif="http://www.serif.com/" style="fill-rule:evenodd;clip-rule:evenodd;stroke-linejoin:round;stroke-miterlimit:2;">
    <g transform="matrix(1,0,0,1,0,-9592)">
        <g id="Монтажная-область9" serif:id="Монтажная область9" transform="matrix(1,0,0,1,0,9592)">
            <rect x="0" y="0" width="3910" height="1918" style="fill:none;"/>
            <clipPath id="_clip1">
                <rect x="0" y="0" width="3910" height="1918"/>
            </clipPath>
            <g clip-path="url(#_clip1)">
                <g id="Big-ben" serif:id="Big ben" transform="matrix(1,0,0,1,-830,220)">
                    <g transform="matrix(1,0,0,0.76087,-50,239.13)">
                        <rect x="900" y="1000" width="300" height="920" style="fill:rgb(255,228,180);"/>
                    </g>
                    <g transform="matrix(1,0,0,0.347826,-50,332.174)">
                        <rect x="900" y="1000" width="300" height="920" style="fill:rgb(255,228,180);"/>
                    </g>
                    <g transform="matrix(1.13333,0,0,0.347826,-190,12.1739)">
                        <rect x="900" y="1000" width="300" height="920" style="fill:rgb(255,228,180);"/>
                    </g>
                    <g transform="matrix(1.03448,0,0,0.666667,-30.3103,120)">
                        <rect x="850" y="300" width="290" height="60" style="fill:rgb(254,208,127);"/>
                    </g>
                    <g transform="matrix(1,0,0,1.75,0,-240)">
                        <path d="M1120,320L880,320L940,280L1060,280L1120,320Z" style="fill:rgb(255,228,180);"/>
                    </g>
                    <rect x="950" y="220" width="100" height="30" style="fill:rgb(254,208,127);"/>
                    <g transform="matrix(1,0,0,1.11111,0,-24.4444)">
                        <path d="M1000,40L1050,220L950,220L1000,40Z" style="fill:rgb(255,228,180);"/>
                    </g>
                    <g transform="matrix(1,0,0,1.1,-3,-37.1)">
                        <rect x="833" y="261" width="20" height="100" style="fill:rgb(254,208,127);"/>
                    </g>
                    <g transform="matrix(1.05,0,0,1,-58.5,-5.68434e-14)">
                        <rect x="1150" y="250" width="20" height="110" style="fill:rgb(254,208,127);"/>
                    </g>
                    <rect x="940" y="180" width="10" height="70" style="fill:rgb(254,208,127);"/>
                    <rect x="1050" y="180" width="9" height="70" style="fill:rgb(254,208,127);"/>
                    <path d="M840,230L850,250L830,250L840,230Z" style="fill:rgb(254,208,127);"/>
                    <path d="M1160,230L1170,250L1150,250L1160,230Z" style="fill:rgb(254,208,127);"/>
                    <path d="M1054.5,170L1059,180L1050,180L1054.5,170Z" style="fill:rgb(254,208,127);"/>
                    <path d="M945,170L950,180L940,180L945,170Z" style="fill:rgb(254,208,127);"/>
                    <g transform="matrix(1,0,0,1,-30,-20)">
                        <circle cx="1030" cy="540" r="110" style="fill:rgb(254,208,127);"/>
                    </g>
                    <g transform="matrix(0.7375,0,0,0.7375,176,-116.25)">
                        <circle cx="1120" cy="860" r="120" style="fill:rgb(255,228,180);"/>
                    </g>
                    <g transform="matrix(1.63889,-0.219246,0.132596,0.99117,-754.766,-16.6581)">
                        <rect x="984" y="760" width="36" height="10" style="fill:rgb(254,208,127);"/>
                    </g>
                    <g transform="matrix(-0.16252,-1.52081,1.52081,-0.16252,-25.9175,2100.07)">
                        <path d="M955,740C955,740 957.604,745.209 959.054,748.108C959.256,748.513 959.235,748.994 958.997,749.38C958.758,749.765 958.337,750 957.884,750C956.186,750 953.814,750 952.116,750C951.663,750 951.242,749.765 951.003,749.38C950.765,748.994 950.744,748.513 950.946,748.108C952.396,745.209 955,740 955,740Z" style="fill:rgb(254,208,127);"/>
                    </g>
                    <g transform="matrix(-0.136714,-0.990611,0.990611,-0.136714,368.88,1598.21)">
                        <path d="M988.861,760.75C989.607,759.458 990,757.992 990,756.5C990,751.809 986.191,748 981.5,748C976.809,748 973,751.809 973,756.5C973,757.992 973.393,759.458 974.139,760.75L988.861,760.75Z" style="fill:rgb(254,208,127);"/>
                    </g>
                    <g transform="matrix(-0.125567,-0.992085,0.992085,-0.125567,403.799,1626.81)">
                        <path d="M1035,755L1010,755L1016.25,740L1028.75,740L1035,755Z" style="fill:rgb(254,208,127);"/>
                    </g>
                    <rect x="830" y="680" width="340" height="40" style="fill:rgb(254,208,127);"/>
                    <g transform="matrix(1,0,0,0.816667,-4.54747e-13,132)">
                        <rect x="1100" y="720" width="49" height="1200" style="fill:rgb(254,208,127);"/>
                    </g>
                    <g transform="matrix(1,0,0,0.816667,-4.54747e-13,132)">
                        <rect x="850" y="720" width="50" height="1200" style="fill:rgb(254,208,127);"/>
                    </g>
                    <g transform="matrix(1,0,0,1,-1.13687e-12,-200)">
                        <rect x="900" y="1690" width="200" height="20" style="fill:rgb(254,208,127);"/>
                    </g>
                    <g transform="matrix(1,0,0,1,-7.95808e-13,-200)">
                        <rect x="900" y="1490" width="200" height="20" style="fill:rgb(254,208,127);"/>
                    </g>
                    <g transform="matrix(1,0,0,1,-4.54747e-13,-200)">
                        <rect x="900" y="1290" width="200" height="20" style="fill:rgb(254,208,127);"/>
                    </g>
                    <g transform="matrix(1,0,0,1,-4.54747e-13,-200)">
                        <rect x="900" y="1090" width="200" height="20" style="fill:rgb(254,208,127);"/>
                    </g>
                    <g transform="matrix(1,0,0,1,10,-225)">
                        <path d="M940,965C940,962.24 937.76,960 935,960L925,960C922.24,960 920,962.24 920,965L920,1095C920,1097.76 922.24,1100 925,1100L935,1100C937.76,1100 940,1097.76 940,1095L940,965Z" style="fill:rgb(254,208,127);"/>
                    </g>
                    <g transform="matrix(1,0,0,1,50,-225)">
                        <path d="M940,965C940,962.24 937.76,960 935,960L925,960C922.24,960 920,962.24 920,965L920,1095C920,1097.76 922.24,1100 925,1100L935,1100C937.76,1100 940,1097.76 940,1095L940,965Z" style="fill:rgb(254,208,127);"/>
                    </g>
                    <g transform="matrix(1,0,0,1,90,-225)">
                        <path d="M940,965C940,962.24 937.76,960 935,960L925,960C922.24,960 920,962.24 920,965L920,1095C920,1097.76 922.24,1100 925,1100L935,1100C937.76,1100 940,1097.76 940,1095L940,965Z" style="fill:rgb(254,208,127);"/>
                    </g>
                    <g transform="matrix(1,0,0,1,130,-225)">
                        <path d="M940,965C940,962.24 937.76,960 935,960L925,960C922.24,960 920,962.24 920,965L920,1095C920,1097.76 922.24,1100 925,1100L935,1100C937.76,1100 940,1097.76 940,1095L940,965Z" style="fill:rgb(254,208,127);"/>
                    </g>
                    <g transform="matrix(1,0,0,1,10,-25)">
                        <path d="M940,965C940,962.24 937.76,960 935,960L925,960C922.24,960 920,962.24 920,965L920,1095C920,1097.76 922.24,1100 925,1100L935,1100C937.76,1100 940,1097.76 940,1095L940,965Z" style="fill:rgb(254,208,127);"/>
                    </g>
                    <g transform="matrix(1,0,0,1,50,-25)">
                        <path d="M940,965C940,962.24 937.76,960 935,960L925,960C922.24,960 920,962.24 920,965L920,1095C920,1097.76 922.24,1100 925,1100L935,1100C937.76,1100 940,1097.76 940,1095L940,965Z" style="fill:rgb(254,208,127);"/>
                    </g>
                    <g transform="matrix(1,0,0,1,90,-25)">
                        <path d="M940,965C940,962.24 937.76,960 935,960L925,960C922.24,960 920,962.24 920,965L920,1095C920,1097.76 922.24,1100 925,1100L935,1100C937.76,1100 940,1097.76 940,1095L940,965Z" style="fill:rgb(254,208,127);"/>
                    </g>
                    <g transform="matrix(1,0,0,1,130,-25)">
                        <path d="M940,965C940,962.24 937.76,960 935,960L925,960C922.24,960 920,962.24 920,965L920,1095C920,1097.76 922.24,1100 925,1100L935,1100C937.76,1100 940,1097.76 940,1095L940,965Z" style="fill:rgb(254,208,127);"/>
                    </g>
                    <g transform="matrix(1,0,0,1,10,175)">
                        <path d="M940,965C940,962.24 937.76,960 935,960L925,960C922.24,960 920,962.24 920,965L920,1095C920,1097.76 922.24,1100 925,1100L935,1100C937.76,1100 940,1097.76 940,1095L940,965Z" style="fill:rgb(254,208,127);"/>
                    </g>
                    <g transform="matrix(1,0,0,1,50,175)">
                        <path d="M940,965C940,962.24 937.76,960 935,960L925,960C922.24,960 920,962.24 920,965L920,1095C920,1097.76 922.24,1100 925,1100L935,1100C937.76,1100 940,1097.76 940,1095L940,965Z" style="fill:rgb(254,208,127);"/>
                    </g>
                    <g transform="matrix(1,0,0,1,90,175)">
                        <path d="M940,965C940,962.24 937.76,960 935,960L925,960C922.24,960 920,962.24 920,965L920,1095C920,1097.76 922.24,1100 925,1100L935,1100C937.76,1100 940,1097.76 940,1095L940,965Z" style="fill:rgb(254,208,127);"/>
                    </g>
                    <g transform="matrix(1,0,0,1,130,175)">
                        <path d="M940,965C940,962.24 937.76,960 935,960L925,960C922.24,960 920,962.24 920,965L920,1095C920,1097.76 922.24,1100 925,1100L935,1100C937.76,1100 940,1097.76 940,1095L940,965Z" style="fill:rgb(254,208,127);"/>
                    </g>
                    <g transform="matrix(1,0,0,1,10,375)">
                        <path d="M940,965C940,962.24 937.76,960 935,960L925,960C922.24,960 920,962.24 920,965L920,1095C920,1097.76 922.24,1100 925,1100L935,1100C937.76,1100 940,1097.76 940,1095L940,965Z" style="fill:rgb(254,208,127);"/>
                    </g>
                    <g transform="matrix(1,0,0,1,50,375)">
                        <path d="M940,965C940,962.24 937.76,960 935,960L925,960C922.24,960 920,962.24 920,965L920,1095C920,1097.76 922.24,1100 925,1100L935,1100C937.76,1100 940,1097.76 940,1095L940,965Z" style="fill:rgb(254,208,127);"/>
                    </g>
                    <g transform="matrix(1,0,0,1,90,375)">
                        <path d="M940,965C940,962.24 937.76,960 935,960L925,960C922.24,960 920,962.24 920,965L920,1095C920,1097.76 922.24,1100 925,1100L935,1100C937.76,1100 940,1097.76 940,1095L940,965Z" style="fill:rgb(254,208,127);"/>
                    </g>
                    <g transform="matrix(1,0,0,1,130,375)">
                        <path d="M940,965C940,962.24 937.76,960 935,960L925,960C922.24,960 920,962.24 920,965L920,1095C920,1097.76 922.24,1100 925,1100L935,1100C937.76,1100 940,1097.76 940,1095L940,965Z" style="fill:rgb(254,208,127);"/>
                    </g>
                    <g transform="matrix(1,0,0,1,10,565)">
                        <path d="M940,965C940,962.24 937.76,960 935,960L925,960C922.24,960 920,962.24 920,965L920,1095C920,1097.76 922.24,1100 925,1100L935,1100C937.76,1100 940,1097.76 940,1095L940,965Z" style="fill:rgb(254,208,127);"/>
                    </g>
                    <g transform="matrix(1,0,0,1,50,565)">
                        <path d="M940,965C940,962.24 937.76,960 935,960L925,960C922.24,960 920,962.24 920,965L920,1095C920,1097.76 922.24,1100 925,1100L935,1100C937.76,1100 940,1097.76 940,1095L940,965Z" style="fill:rgb(254,208,127);"/>
                    </g>
                    <g transform="matrix(1,0,0,1,90,565)">
                        <path d="M940,965C940,962.24 937.76,960 935,960L925,960C922.24,960 920,962.24 920,965L920,1095C920,1097.76 922.24,1100 925,1100L935,1100C937.76,1100 940,1097.76 940,1095L940,965Z" style="fill:rgb(254,208,127);"/>
                    </g>
                    <g transform="matrix(1,0,0,1,130,565)">
                        <path d="M940,965C940,962.24 937.76,960 935,960L925,960C922.24,960 920,962.24 920,965L920,1095C920,1097.76 922.24,1100 925,1100L935,1100C937.76,1100 940,1097.76 940,1095L940,965Z" style="fill:rgb(254,208,127);"/>
                    </g>
                    <g>
                        <g transform="matrix(1,0,0,1.55,2,-527.75)">
                            <path d="M890,551.613C890,550.723 888.88,550 887.5,550L882.5,550C881.12,550 880,550.723 880,551.613L880,568.387C880,569.277 881.12,570 882.5,570L887.5,570C888.88,570 890,569.277 890,568.387L890,551.613Z" style="fill:rgb(255,228,180);"/>
                        </g>
                        <g transform="matrix(1,0,0,1.55,17,-527.75)">
                            <path d="M890,551.613C890,550.723 888.88,550 887.5,550L882.5,550C881.12,550 880,550.723 880,551.613L880,568.387C880,569.277 881.12,570 882.5,570L887.5,570C888.88,570 890,569.277 890,568.387L890,551.613Z" style="fill:rgb(255,228,180);"/>
                        </g>
                        <g transform="matrix(1,0,0,1.55,32,-527.75)">
                            <path d="M890,551.613C890,550.723 888.88,550 887.5,550L882.5,550C881.12,550 880,550.723 880,551.613L880,568.387C880,569.277 881.12,570 882.5,570L887.5,570C888.88,570 890,569.277 890,568.387L890,551.613Z" style="fill:rgb(255,228,180);"/>
                        </g>
                        <g transform="matrix(1,0,0,1.55,47,-528.25)">
                            <path d="M890,551.613C890,550.723 888.88,550 887.5,550L882.5,550C881.12,550 880,550.723 880,551.613L880,568.387C880,569.277 881.12,570 882.5,570L887.5,570C888.88,570 890,569.277 890,568.387L890,551.613Z" style="fill:rgb(255,228,180);"/>
                        </g>
                        <g transform="matrix(1,0,0,1.55,62,-527.75)">
                            <path d="M890,551.613C890,550.723 888.88,550 887.5,550L882.5,550C881.12,550 880,550.723 880,551.613L880,568.387C880,569.277 881.12,570 882.5,570L887.5,570C888.88,570 890,569.277 890,568.387L890,551.613Z" style="fill:rgb(255,228,180);"/>
                        </g>
                        <g transform="matrix(1,0,0,1.55,77,-527.75)">
                            <path d="M890,551.613C890,550.723 888.88,550 887.5,550L882.5,550C881.12,550 880,550.723 880,551.613L880,568.387C880,569.277 881.12,570 882.5,570L887.5,570C888.88,570 890,569.277 890,568.387L890,551.613Z" style="fill:rgb(255,228,180);"/>
                        </g>
                        <g transform="matrix(1,0,0,1.55,92,-527.75)">
                            <path d="M890,551.613C890,550.723 888.88,550 887.5,550L882.5,550C881.12,550 880,550.723 880,551.613L880,568.387C880,569.277 881.12,570 882.5,570L887.5,570C888.88,570 890,569.277 890,568.387L890,551.613Z" style="fill:rgb(255,228,180);"/>
                        </g>
                        <g transform="matrix(1,0,0,1.55,107,-527.75)">
                            <path d="M890,551.613C890,550.723 888.88,550 887.5,550L882.5,550C881.12,550 880,550.723 880,551.613L880,568.387C880,569.277 881.12,570 882.5,570L887.5,570C888.88,570 890,569.277 890,568.387L890,551.613Z" style="fill:rgb(255,228,180);"/>
                        </g>
                        <g transform="matrix(1,0,0,1.55,122,-527.75)">
                            <path d="M890,551.613C890,550.723 888.88,550 887.5,550L882.5,550C881.12,550 880,550.723 880,551.613L880,568.387C880,569.277 881.12,570 882.5,570L887.5,570C888.88,570 890,569.277 890,568.387L890,551.613Z" style="fill:rgb(255,228,180);"/>
                        </g>
                        <g transform="matrix(1,0,0,1.55,137,-528.25)">
                            <path d="M890,551.613C890,550.723 888.88,550 887.5,550L882.5,550C881.12,550 880,550.723 880,551.613L880,568.387C880,569.277 881.12,570 882.5,570L887.5,570C888.88,570 890,569.277 890,568.387L890,551.613Z" style="fill:rgb(255,228,180);"/>
                        </g>
                        <g transform="matrix(1,0,0,1.55,152,-527.75)">
                            <path d="M890,551.613C890,550.723 888.88,550 887.5,550L882.5,550C881.12,550 880,550.723 880,551.613L880,568.387C880,569.277 881.12,570 882.5,570L887.5,570C888.88,570 890,569.277 890,568.387L890,551.613Z" style="fill:rgb(255,228,180);"/>
                        </g>
                        <g transform="matrix(1,0,0,1.55,167,-527.75)">
                            <path d="M890,551.613C890,550.723 888.88,550 887.5,550L882.5,550C881.12,550 880,550.723 880,551.613L880,568.387C880,569.277 881.12,570 882.5,570L887.5,570C888.88,570 890,569.277 890,568.387L890,551.613Z" style="fill:rgb(255,228,180);"/>
                        </g>
                        <g transform="matrix(1,0,0,1.55,182,-527.75)">
                            <path d="M890,551.613C890,550.723 888.88,550 887.5,550L882.5,550C881.12,550 880,550.723 880,551.613L880,568.387C880,569.277 881.12,570 882.5,570L887.5,570C888.88,570 890,569.277 890,568.387L890,551.613Z" style="fill:rgb(255,228,180);"/>
                        </g>
                        <g transform="matrix(1,0,0,1.55,197,-527.75)">
                            <path d="M890,551.613C890,550.723 888.88,550 887.5,550L882.5,550C881.12,550 880,550.723 880,551.613L880,568.387C880,569.277 881.12,570 882.5,570L887.5,570C888.88,570 890,569.277 890,568.387L890,551.613Z" style="fill:rgb(255,228,180);"/>
                        </g>
                        <g transform="matrix(1,0,0,1.55,212,-527.75)">
                            <path d="M890,551.613C890,550.723 888.88,550 887.5,550L882.5,550C881.12,550 880,550.723 880,551.613L880,568.387C880,569.277 881.12,570 882.5,570L887.5,570C888.88,570 890,569.277 890,568.387L890,551.613Z" style="fill:rgb(255,228,180);"/>
                        </g>
                        <g transform="matrix(1,0,0,1.55,227,-527.75)">
                            <path d="M890,551.613C890,550.723 888.88,550 887.5,550L882.5,550C881.12,550 880,550.723 880,551.613L880,568.387C880,569.277 881.12,570 882.5,570L887.5,570C888.88,570 890,569.277 890,568.387L890,551.613Z" style="fill:rgb(255,228,180);"/>
                        </g>
                    </g>
                    <g transform="matrix(1,0,0,1,0,360)">
                        <g transform="matrix(1,0,0,1.55,2,-527.75)">
                            <path d="M890,551.613C890,550.723 888.88,550 887.5,550L882.5,550C881.12,550 880,550.723 880,551.613L880,568.387C880,569.277 881.12,570 882.5,570L887.5,570C888.88,570 890,569.277 890,568.387L890,551.613Z" style="fill:rgb(255,228,180);"/>
                        </g>
                        <g transform="matrix(1,0,0,1.55,17,-527.75)">
                            <path d="M890,551.613C890,550.723 888.88,550 887.5,550L882.5,550C881.12,550 880,550.723 880,551.613L880,568.387C880,569.277 881.12,570 882.5,570L887.5,570C888.88,570 890,569.277 890,568.387L890,551.613Z" style="fill:rgb(255,228,180);"/>
                        </g>
                        <g transform="matrix(1,0,0,1.55,32,-527.75)">
                            <path d="M890,551.613C890,550.723 888.88,550 887.5,550L882.5,550C881.12,550 880,550.723 880,551.613L880,568.387C880,569.277 881.12,570 882.5,570L887.5,570C888.88,570 890,569.277 890,568.387L890,551.613Z" style="fill:rgb(255,228,180);"/>
                        </g>
                        <g transform="matrix(1,0,0,1.55,47,-528.25)">
                            <path d="M890,551.613C890,550.723 888.88,550 887.5,550L882.5,550C881.12,550 880,550.723 880,551.613L880,568.387C880,569.277 881.12,570 882.5,570L887.5,570C888.88,570 890,569.277 890,568.387L890,551.613Z" style="fill:rgb(255,228,180);"/>
                        </g>
                        <g transform="matrix(1,0,0,1.55,62,-527.75)">
                            <path d="M890,551.613C890,550.723 888.88,550 887.5,550L882.5,550C881.12,550 880,550.723 880,551.613L880,568.387C880,569.277 881.12,570 882.5,570L887.5,570C888.88,570 890,569.277 890,568.387L890,551.613Z" style="fill:rgb(255,228,180);"/>
                        </g>
                        <g transform="matrix(1,0,0,1.55,77,-527.75)">
                            <path d="M890,551.613C890,550.723 888.88,550 887.5,550L882.5,550C881.12,550 880,550.723 880,551.613L880,568.387C880,569.277 881.12,570 882.5,570L887.5,570C888.88,570 890,569.277 890,568.387L890,551.613Z" style="fill:rgb(255,228,180);"/>
                        </g>
                        <g transform="matrix(1,0,0,1.55,92,-527.75)">
                            <path d="M890,551.613C890,550.723 888.88,550 887.5,550L882.5,550C881.12,550 880,550.723 880,551.613L880,568.387C880,569.277 881.12,570 882.5,570L887.5,570C888.88,570 890,569.277 890,568.387L890,551.613Z" style="fill:rgb(255,228,180);"/>
                        </g>
                        <g transform="matrix(1,0,0,1.55,107,-527.75)">
                            <path d="M890,551.613C890,550.723 888.88,550 887.5,550L882.5,550C881.12,550 880,550.723 880,551.613L880,568.387C880,569.277 881.12,570 882.5,570L887.5,570C888.88,570 890,569.277 890,568.387L890,551.613Z" style="fill:rgb(255,228,180);"/>
                        </g>
                        <g transform="matrix(1,0,0,1.55,122,-527.75)">
                            <path d="M890,551.613C890,550.723 888.88,550 887.5,550L882.5,550C881.12,550 880,550.723 880,551.613L880,568.387C880,569.277 881.12,570 882.5,570L887.5,570C888.88,570 890,569.277 890,568.387L890,551.613Z" style="fill:rgb(255,228,180);"/>
                        </g>
                        <g transform="matrix(1,0,0,1.55,137,-528.25)">
                            <path d="M890,551.613C890,550.723 888.88,550 887.5,550L882.5,550C881.12,550 880,550.723 880,551.613L880,568.387C880,569.277 881.12,570 882.5,570L887.5,570C888.88,570 890,569.277 890,568.387L890,551.613Z" style="fill:rgb(255,228,180);"/>
                        </g>
                        <g transform="matrix(1,0,0,1.55,152,-527.75)">
                            <path d="M890,551.613C890,550.723 888.88,550 887.5,550L882.5,550C881.12,550 880,550.723 880,551.613L880,568.387C880,569.277 881.12,570 882.5,570L887.5,570C888.88,570 890,569.277 890,568.387L890,551.613Z" style="fill:rgb(255,228,180);"/>
                        </g>
                        <g transform="matrix(1,0,0,1.55,167,-527.75)">
                            <path d="M890,551.613C890,550.723 888.88,550 887.5,550L882.5,550C881.12,550 880,550.723 880,551.613L880,568.387C880,569.277 881.12,570 882.5,570L887.5,570C888.88,570 890,569.277 890,568.387L890,551.613Z" style="fill:rgb(255,228,180);"/>
                        </g>
                        <g transform="matrix(1,0,0,1.55,182,-527.75)">
                            <path d="M890,551.613C890,550.723 888.88,550 887.5,550L882.5,550C881.12,550 880,550.723 880,551.613L880,568.387C880,569.277 881.12,570 882.5,570L887.5,570C888.88,570 890,569.277 890,568.387L890,551.613Z" style="fill:rgb(255,228,180);"/>
                        </g>
                        <g transform="matrix(1,0,0,1.55,197,-527.75)">
                            <path d="M890,551.613C890,550.723 888.88,550 887.5,550L882.5,550C881.12,550 880,550.723 880,551.613L880,568.387C880,569.277 881.12,570 882.5,570L887.5,570C888.88,570 890,569.277 890,568.387L890,551.613Z" style="fill:rgb(255,228,180);"/>
                        </g>
                        <g transform="matrix(1,0,0,1.55,212,-527.75)">
                            <path d="M890,551.613C890,550.723 888.88,550 887.5,550L882.5,550C881.12,550 880,550.723 880,551.613L880,568.387C880,569.277 881.12,570 882.5,570L887.5,570C888.88,570 890,569.277 890,568.387L890,551.613Z" style="fill:rgb(255,228,180);"/>
                        </g>
                        <g transform="matrix(1,0,0,1.55,227,-527.75)">
                            <path d="M890,551.613C890,550.723 888.88,550 887.5,550L882.5,550C881.12,550 880,550.723 880,551.613L880,568.387C880,569.277 881.12,570 882.5,570L887.5,570C888.88,570 890,569.277 890,568.387L890,551.613Z" style="fill:rgb(255,228,180);"/>
                        </g>
                    </g>
                    <g transform="matrix(0.584566,-0.811346,0.811346,0.584566,-176.577,826.92)">
                        <path d="M936,689.5L939,695.5L933,695.5L936,689.5Z" style="fill:rgb(254,208,127);"/>
                    </g>
                    <g transform="matrix(1,0,0,1,-10,-230)">
                        <circle cx="1010" cy="750" r="10" style="fill:rgb(254,208,127);"/>
                    </g>
                    <g transform="matrix(0.816185,0.57779,-0.57779,0.816185,609.674,-659.767)">
                        <rect x="920" y="735" width="80" height="5" style="fill:rgb(254,208,127);"/>
                    </g>
                </g>
                <g transform="matrix(1,0,0,1,788.987,-9673.76)">
                    <text x="953.845px" y="10573.7px" style="font-family:'Raleway-Black', 'Raleway', sans-serif;font-weight:900;font-size:288px;fill:rgb(255,0,0);">4</text>
                    <text x="1122.61px" y="10573.7px" style="font-family:'Raleway-Black', 'Raleway', sans-serif;font-weight:900;font-size:288px;fill:rgb(165,120,105);">0</text>
                    <text x="1299.44px" y="10573.7px" style="font-family:'Raleway-Black', 'Raleway', sans-serif;font-weight:900;font-size:288px;fill:rgb(255,0,0);">4</text>
                    <text x="360.133px" y="10861.7px" style="font-family:'Raleway-Black', 'Raleway', sans-serif;font-weight:900;font-size:288px;fill:rgb(255,0,0);">N</text>
                    <text x="577.285px" y="10861.7px" style="font-family:'Raleway-Black', 'Raleway', sans-serif;font-weight:900;font-size:288px;fill:rgb(165,120,105);">O</text>
                    <text x="797.605px" y="10861.7px" style="font-family:'Raleway-Black', 'Raleway', sans-serif;font-weight:900;font-size:288px;fill:rgb(255,0,0);">T F</text>
                    <text x="1204.26px" y="10861.7px" style="font-family:'Raleway-Black', 'Raleway', sans-serif;font-weight:900;font-size:288px;fill:rgb(165,120,105);">O</text>
                    <text x="1424.58px" y="10861.7px" style="font-family:'Raleway-Black', 'Raleway', sans-serif;font-weight:900;font-size:288px;fill:rgb(255,0,0);">UND</text>
                </g>
            </g>
        </g>
    </g>
</svg>
