<?xml version="1.0" encoding="UTF-8" standalone="no"?>
<!DOCTYPE svg PUBLIC "-//W3C//DTD SVG 1.1//EN" "http://www.w3.org/Graphics/SVG/1.1/DTD/svg11.dtd">
<svg width="100%" height="100%" viewBox="0 0 275 205" version="1.1" xmlns="http://www.w3.org/2000/svg" xmlns:xlink="http://www.w3.org/1999/xlink" xml:space="preserve" xmlns:serif="http://www.serif.com/" style="fill-rule:evenodd;clip-rule:evenodd;stroke-linejoin:round;stroke-miterlimit:2;">
    <g id="layer101">
        <g transform="matrix(1,0,0,0.990553,0,2.03365)">
            <path d="M119,204.3C117.1,204.1 111.7,203.2 107,202.4C54.8,193 15.4,162.9 2.8,123C1,115.996 -0.069,114.397 0,103.948C0.101,88.648 2,80.9 8.5,67.5C21.4,40.7 48.123,18.551 83,7.6C101.497,1.793 106.64,-0.02 134,-0.944C155.08,-0.518 158.148,0.487 169.9,1.9C215.3,10.6 250.9,34.6 267.1,67.5C273,79.6 275,88.1 275,101.8C275,115.3 272.9,124.2 267,136.6C249.7,172.4 208.9,197.6 158,203.9C150.1,204.9 126.8,205.1 119,204.3ZM151.9,197C202.8,192.5 248.8,166.7 265.3,133.5C271.2,121.7 273.2,113.8 273.2,102.5C273.3,88.7 270.6,79.3 262.6,65.5C257.4,56.7 240.976,40.425 231,33.3C212.4,20.017 193.131,12.542 169,8.042C162.185,6.772 148.156,5.01 135,5.014C120.365,5.017 106.572,6.951 100,8.844C99.648,8.945 104.312,7.94 104,8.042C57.9,16.742 23.9,41.5 8.5,73.5C-0.2,91.6 0.1,114.4 9.2,132.5C26.3,166 72.4,192.5 121.4,196.9C134.6,198.1 139.2,198.1 151.9,197Z" style="fill:rgb(165,120,105);fill-rule:nonzero;"/>
        </g>
        <path d="M111.5,149.3C107.7,148.3 107,146.9 107,140.3L107,133.8L110.3,134.4C121.5,136.7 126.5,135.8 127.6,131.5C128.5,128 128.6,101.8 127.7,97.8C127.1,94.9 126.3,93.9 124.4,93.4C121.3,92.6 119,94.5 119,97.9C119,101.2 120.7,103 123.7,103C126,103 126.1,103.2 125.8,110.8L125.5,118.5L119.8,118.5C114.8,118.5 113.7,118.1 110.9,115.5C105.3,110.1 103.8,105.8 104.2,96.4C104.5,89 104.8,87.8 107.6,84.4C115.5,74.6 128.1,73.6 136.9,82.2C143.1,88.3 143.4,89.7 143.8,110.5C144.3,134.5 143.4,140.3 138.5,144.6C136.5,146.4 132.9,148.3 130.5,148.9C126.1,150 115.3,150.2 111.5,149.3Z" style="fill:rgb(165,120,105);fill-rule:nonzero;"/>
        <path d="M167.5,141.1C166.4,140.6 164.7,139.3 163.6,138.1L161.7,136.1L159.8,138.5C158.1,140.7 157,141 152,141C146.3,141 146.1,140.9 145.5,137.9C144.5,133.3 146.3,132.1 150,134.8C153.1,137.1 156,137.7 156,136C156,135.4 154.2,134.3 152,133.4C147.6,131.6 146,129.5 146,125.5C146,122.6 149,121 154.4,121C158.3,121 160,122.5 160,126.2C160,129.5 158.1,129.9 155.5,127C153.6,124.9 151,124.3 151,125.9C151,126.5 153.2,128 155.9,129.4L160.8,131.8L161.4,128.5C162.3,124.1 165,121.9 170.5,121.3C175.8,120.6 178,122 178,126.1C178,129.5 176.1,129.9 173.5,127C170.8,124 167.8,124.8 166.6,128.8C164.7,135.5 169.4,139.2 174.9,135.4C176.5,134.2 177.5,134.1 178.2,134.8C179.6,136.2 177.8,138.5 173.9,140.6C170.8,142.2 170.3,142.2 167.5,141.1Z" style="fill:rgb(165,120,105);fill-rule:nonzero;"/>
        <path d="M179.6,138.3C180.4,135.5 180.5,128.9 179.9,124C179.6,121.9 179.9,121.4 182.4,121.2C186,120.8 187.8,122.3 186,124.4C184.4,126.5 185.4,129 188,129C190.6,129 191.6,126.5 190,124.4C188.1,122.3 190,120.8 194.1,121.2C197.1,121.5 197.4,121.8 197.1,124C196.4,127.9 196.6,136.3 197.4,138.8C198.2,140.9 198,141 193.6,141C190.3,141 189,140.6 189,139.6C189,138.8 189.5,137.8 190,137.5C192.2,136.1 191,134 188,134C185,134 183.8,136.1 186,137.5C186.6,137.8 187,138.8 187,139.6C187,140.6 185.8,141 182.9,141C178.9,141 178.8,140.9 179.6,138.3Z" style="fill:rgb(165,120,105);fill-rule:nonzero;"/>
        <path d="M200.6,137.9C192.9,128.8 204.1,115.8 213.4,123.1C214.8,124.2 216,125.8 216,126.6C216,128.8 217.5,128.3 218.9,125.6C221.7,120.4 228.7,119.6 233.1,123.9C237,127.8 237.2,134.4 233.5,138.4C230,142.2 223.9,142.1 219.9,138L216.9,135L214.3,138C212.3,140.5 211.1,141 207.5,141C203.9,141 202.7,140.5 200.6,137.9ZM210.4,135.8C213.3,131.6 211.4,125 207.3,125C203.2,125 201.9,132.7 205.2,136.7C206.8,138.6 208.7,138.3 210.4,135.8ZM229.8,134.7C230.7,132.9 230.9,130.5 230.6,128.4C230,125.7 229.4,125 227.6,125C223.1,125 220.7,131.3 223.5,135.6C225.5,138.7 228.1,138.4 229.8,134.7Z" style="fill:rgb(165,120,105);fill-rule:nonzero;"/>
        <path d="M236.5,140.1C236.2,139.5 236.4,138.1 237,136.9C238,135.1 238,129.8 236.9,123.5C236.5,121.8 237,121.5 240.5,121.5C244.8,121.5 244.8,121.3 243.4,128.7C242.6,132.6 243.6,137 245.2,137C245.8,137 247.4,136 248.7,134.8C251.6,132.1 252.6,133 251.4,137.2C250.4,140.5 250.3,140.5 243.8,140.8C240,141 236.9,140.6 236.5,140.1Z" style="fill:rgb(165,120,105);fill-rule:nonzero;"/>
        <path d="M35,117.9C28.3,113.8 25.1,107.3 25,97.9C25,89.7 27.8,83.8 33.9,79.5C37.4,77 39.1,76.5 43.8,76.6C47.2,76.6 51,77.3 53.2,78.4C57.4,80.4 64.5,89.3 63.7,91.4C63.2,92.6 56.2,97.5 49.2,101.6L45.8,103.5L43.9,101.1C41.3,97.9 41.5,95.6 44.5,94C45.9,93.3 47,92.3 47,91.8C47,90.1 43.2,91.1 41,93.5C38.9,95.8 38.8,96.3 39.9,100C41.8,106.5 46.2,107.7 52.5,103.4L56.3,100.9L59.2,103.7C64.4,108.6 64.6,109.8 60.9,113.6C56.3,118.4 52.2,120 44.8,120C40.1,120 37.6,119.4 35,117.9Z" style="fill:rgb(165,120,105);fill-rule:nonzero;"/>
        <path d="M69.2,119.3L64.9,118.9L65.2,103.5C65.5,89.8 65.7,87.8 67.6,85.3C74.5,76 89,74.4 96.9,82.2C101.1,86.3 102,90.4 102,106.3L102,120L86.3,120L85.7,111.8C85.3,107.2 85,101.4 85,98.8C85,94.7 83.7,91.9 82.4,93.3C82.1,93.5 81.6,99.5 81.2,106.6L80.5,119.5L77,119.6C75.1,119.7 71.6,119.5 69.2,119.3Z" style="fill:rgb(165,120,105);fill-rule:nonzero;"/>
        <rect x="145" y="60" width="16" height="60" style="fill:rgb(165,120,105);fill-rule:nonzero;"/>
        <rect x="163" y="77" width="16" height="43" style="fill:rgb(165,120,105);fill-rule:nonzero;"/>
        <path d="M185.5,119.1L181.5,118.5L181.5,104.5L186.8,104.2C189.6,104 192,103.5 192,103C192,102.6 190.5,101.3 188.6,100.2C183.8,97.4 181.7,93.7 181.7,88.4C181.7,80.7 187.4,77.1 199.5,77C208.6,77 209,77.3 209,84.6L209,91L205.8,91.1C204,91.1 201.6,91.5 200.6,91.9C198.9,92.6 199.2,93 202.8,95.6C208,99.4 210,102.8 210,108.2C210,115.8 206.6,118.3 195,119.3C192,119.5 187.7,119.4 185.5,119.1Z" style="fill:rgb(165,120,105);fill-rule:nonzero;"/>
        <path d="M212,120L212,60L227,60L227,67.8C227,72 227.4,76 227.8,76.7C228.3,77.6 229.8,77.6 233.3,76.8C237.3,76 238.5,76.1 241.2,77.7C247.5,81.4 248.5,84.5 248.8,103.3L249.2,120L233,120L233,108.3C233,94.8 232.4,91.8 230.1,92.2C227.9,92.6 227.3,96.5 227.1,109.3L227,120L212,120Z" style="fill:rgb(165,120,105);fill-rule:nonzero;"/>
        <path d="M168.1,74.1C166.8,73.8 164.8,72.3 163.7,70.9C161.5,67.8 162.2,65.9 167.8,59.5L171.1,55.8L174.2,58.6C177.6,61.9 180,66.1 180,68.8C180,72.7 173.4,75.6 168.1,74.1Z" style="fill:rgb(165,120,105);fill-rule:nonzero;"/>
    </g>
</svg>
