<?xml version="1.0" standalone="no"?>
<!DOCTYPE svg PUBLIC "-//W3C//DTD SVG 20010904//EN"
 "http://www.w3.org/TR/2001/REC-SVG-20010904/DTD/svg10.dtd">
<svg version="1.0" xmlns="http://www.w3.org/2000/svg"
 width="275.000000pt" height="275.000000pt" viewBox="0 0 275.000000 275.000000"
 preserveAspectRatio="xMidYMid meet">
<metadata>
Created by potrace 1.11, written by Peter Selinger 2001-2013
</metadata>
<g transform="translate(0.000000,275.000000) scale(0.100000,-0.100000)"
fill="#000000" stroke="none">
<path d="M294 1980 c-91 -41 -180 -168 -208 -300 -18 -82 -14 -303 8 -379 33
-119 96 -212 172 -257 82 -48 244 -37 321 22 76 57 137 149 129 194 -4 29 -47
100 -97 159 l-20 24 -37 -31 c-111 -95 -164 -102 -206 -29 -30 54 -50 137 -41
178 9 38 72 104 103 106 33 3 27 -18 -18 -65 -29 -30 -40 -50 -40 -72 0 -31
41 -123 59 -135 11 -6 227 171 275 225 16 18 29 43 29 55 0 59 -126 250 -188
286 -59 35 -185 45 -241 19z"/>
<path d="M1675 1994 c-83 -21 -176 -107 -227 -211 l-33 -68 0 -180 c0 -99 3
-197 7 -218 10 -61 66 -165 117 -218 40 -42 53 -49 87 -50 21 -1 61 -2 87 -3
27 0 50 1 52 4 4 6 9 267 6 312 -1 23 -7 29 -41 38 -50 13 -72 51 -69 119 3
55 23 89 57 96 50 9 77 -27 88 -117 9 -65 9 -608 1 -700 -12 -135 -69 -161
-260 -119 -48 10 -89 16 -90 13 -2 -4 -3 -45 -2 -92 5 -192 8 -209 49 -235 34
-22 59 -26 172 -26 156 -1 239 30 308 114 82 100 91 163 90 622 -1 547 -5 600
-55 702 -35 72 -127 171 -184 198 -40 19 -122 28 -160 19z"/>
<path d="M2362 1989 c-110 -14 -193 -78 -212 -164 -10 -44 -4 -146 11 -205 26
-97 113 -191 234 -253 42 -21 115 -91 115 -110 0 -8 -7 -23 -16 -32 -31 -30
-103 1 -194 84 -81 75 -136 93 -166 54 -19 -25 -23 -85 -11 -183 18 -154 31
-163 214 -165 172 -2 216 8 265 58 50 52 62 93 63 217 0 97 -2 108 -27 150
-37 60 -81 106 -153 160 -106 78 -155 130 -155 161 0 52 65 46 120 -10 8 -9
31 -36 50 -61 48 -61 70 -79 101 -80 36 0 52 42 52 134 0 207 -78 273 -291
245z"/>
<path d="M983 1966 c-98 -32 -199 -141 -219 -237 -5 -29 -14 -256 -18 -506 -3
-213 -20 -191 152 -200 l112 -6 1 74 c0 41 2 97 4 124 2 28 6 111 10 185 4 74
8 146 10 160 1 14 3 33 4 43 2 25 20 21 30 -7 9 -23 13 -84 27 -381 3 -77 7
-153 8 -170 l2 -30 133 -1 133 -1 -5 326 c-3 179 -7 337 -10 351 -12 65 -29
109 -56 150 -44 66 -51 74 -104 104 -57 34 -149 43 -214 22z"/>
</g>
</svg>
